<svg id="f983ec3a-edbb-414f-8d3b-b5d4920a4677" data-name="Layer 1" xmlns="http://www.w3.org/2000/svg" viewBox="0 0 5943.18 1286.23"><defs><style>.b9347d13-d67f-4617-8683-ebbc79377712{font-size:1100px;fill:#8dc263;font-family:Montserrat-Bold, Montserrat;font-weight:700;letter-spacing:0em;}.aef63265-ccdc-4eec-901c-77c35e0c8129{letter-spacing:-0.01em;}.a1443722-706c-4847-a0f6-244a74ab90ae{letter-spacing:0em;}.a89ef287-90d6-49ab-8cee-0aad9f448510{fill:#a8cc65;}.e4bf25bf-7154-475e-9a8a-15ac8a406f35{fill:#231f20;}.e2bba1d2-be70-4d65-a9c5-13e13c78132d{fill:#82504a;}.f1804782-4fc8-4f26-a35b-e92b932485a6{fill:#6c372f;}.a721eb67-99c0-447d-95c1-e4d7dca56c82{fill:#8dc860;}.e034a4d5-660f-4f72-bf13-47e0a9465b5c{fill:#6fb244;}.b5fab19e-c766-40db-8aac-56c39d93ded9{fill:#eaf0ba;}.a0932097-4bb7-4c25-97a0-29f5c6e97ac9{fill:#b8d986;}.a0655554-31a1-4557-8cb5-5e0665b5895f,.f89486c5-0ac9-419f-817f-6ae4f35aa660{fill:none;}.a0655554-31a1-4557-8cb5-5e0665b5895f{stroke:#eaf0ba;stroke-miterlimit:10;}.a0655554-31a1-4557-8cb5-5e0665b5895f,.efec3f78-624c-4aa3-be6c-9ee1162c8009,.f89486c5-0ac9-419f-817f-6ae4f35aa660{stroke-linecap:round;stroke-width:30px;}.efec3f78-624c-4aa3-be6c-9ee1162c8009,.f89486c5-0ac9-419f-817f-6ae4f35aa660{stroke:#231f20;stroke-linejoin:round;}.efec3f78-624c-4aa3-be6c-9ee1162c8009{fill:#ee7778;}</style></defs><text class="b9347d13-d67f-4617-8683-ebbc79377712" transform="translate(1269.53 993.62)">t<tspan class="aef63265-ccdc-4eec-901c-77c35e0c8129" x="474.1" y="0">r</tspan><tspan class="a1443722-706c-4847-a0f6-244a74ab90ae" x="933.91" y="0">ee</tspan><tspan class="a89ef287-90d6-49ab-8cee-0aad9f448510" x="2313.3" y="0">defi</tspan></text><g id="f1a18ccd-426f-4910-988d-a24e6cf9dac0" data-name="2"><path class="e4bf25bf-7154-475e-9a8a-15ac8a406f35" d="M3000.72,5182.32a202.71,202.71,0,0,0-16.33-74.32c-4.42-10.29-14-21.25-17.06-31.65-2.41-8.26,5.49-23.29,7.85-32.17q4.71-17.7,8-35.76A444.7,444.7,0,0,0,2990,4938c1.59-90.84-25.3-180.86-75.51-256.51-101.11-152.34-288.5-234-468.62-196.93-176.16,36.3-320,180.08-356,356.35a446.77,446.77,0,0,0-6.82,133.5c.9,9.12,5.15,22.45,2.45,30.85-3.72,11.57-13,23.17-17.92,34.56a263.16,263.16,0,0,0-14.52,44.35c-18.36,79.42,2.63,164.18,54.48,226.86,54.8,66.25,139.81,103.77,225.81,96.84a262.59,262.59,0,0,0,99.46-28.64c8.13-4.21,8.25-6.08,12.91.94,2.67,4,4.84,8.53,7.18,12.77,3.67,6.63,7.28,13.3,10.76,20,2.67,5.16,18,40.22,17.33,57-.71,17.58,3.29,26.41,20.11,34,27.74,12.51,74.7,13.68,100.22-5.14,8.83-6.51,10.08-13.87,10.92-24.36.48-6,1.8-7.61,5.3-12.93,13.42-20.44,30-37.5,43.44-57.93,6.3-9.59,39.62-37.74,39.62-37.74a49.69,49.69,0,0,0,16.88,12.23,202,202,0,0,0,93.4,14.87C2917.85,5384.57,3003.6,5289.73,3000.72,5182.32Z" transform="translate(-2046.48 -4475.68)"/><path class="e2bba1d2-be70-4d65-a9c5-13e13c78132d" d="M2515.36,5483.81s6.16,8.11,31.38,8.11,31.13-8.11,31.13-8.11l-.37-9.88,130.33-138h-10l-124.63,102.32,1.05-198.48-38.55,6.42c-5.71,45-18.44,178.48-18.44,178.48l-99.36-137.39h-12.14S2514.67,5414,2516.1,5446.8C2516.43,5454.29,2516.08,5467.65,2515.36,5483.81Z" transform="translate(-2046.48 -4475.68)"/><path class="f1804782-4fc8-4f26-a35b-e92b932485a6" d="M2505.7,5482.42l17.94,6.24c-1.09-27.51-2.14-58.46.13-76.13,6.61-51.4,19.07-44.26,34.78-23.56s3.86,95.53,19.26,93.1l-.31-8.14,145.41-154.51h-10l-139.71,118.82,1.05-198.48-38.55,6.42c-5.71,45-18.44,148.57-18.44,148.57l-99.36-107.48h-12.14s97.83,122,99.26,154.81C2505.36,5449.57,2506.42,5466.26,2505.7,5482.42Z" transform="translate(-2046.48 -4475.68)"/><path class="a721eb67-99c0-447d-95c1-e4d7dca56c82" d="M2312.34,4896.72c-134.1,0-246,111.91-246,246s111.9,246,246,246,246-111.9,246-246S2446.45,4896.72,2312.34,4896.72Z" transform="translate(-2046.48 -4475.68)"/><path class="e034a4d5-660f-4f72-bf13-47e0a9465b5c" d="M2348.52,5352.55c-134.1,0-246-111.9-246-246,0-58,21-111.82,55.57-154.26-55.68,45.41-91.74,114.33-91.74,190.44,0,134.1,111.9,246,246,246,76.11,0,145-36.06,190.44-91.74C2460.34,5331.59,2406.52,5352.55,2348.52,5352.55Z" transform="translate(-2046.48 -4475.68)"/><circle class="a721eb67-99c0-447d-95c1-e4d7dca56c82" cx="2535.44" cy="4930.09" r="434.63" transform="translate(-4789.97 -1238.87) rotate(-45)"/><path class="b5fab19e-c766-40db-8aac-56c39d93ded9" d="M2535.44,4528.09c231.45,0,425.49,188.7,434.31,418.31q.32-8.11.31-16.31c0-236.92-197.71-434.62-434.62-434.62s-434.63,197.7-434.63,434.62q0,8.19.32,16.31C2110,4716.79,2304,4528.09,2535.44,4528.09Z" transform="translate(-2046.48 -4475.68)"/><path class="e034a4d5-660f-4f72-bf13-47e0a9465b5c" d="M2535.44,5297.2c-225.56,0-415.44-179.23-433.14-400.87-.89,11.16-1.49,22.4-1.49,33.76,0,236.92,197.71,434.62,434.63,434.62s434.62-197.7,434.62-434.62c0-11.36-.59-22.6-1.48-33.76C2950.87,5118,2761,5297.2,2535.44,5297.2Z" transform="translate(-2046.48 -4475.68)"/><circle class="a721eb67-99c0-447d-95c1-e4d7dca56c82" cx="2795.09" cy="5187.85" r="185.71" transform="translate(-4896.18 -979.77) rotate(-45)"/><path class="e034a4d5-660f-4f72-bf13-47e0a9465b5c" d="M2961.25,5106a180.94,180.94,0,0,1,3.47,35.1c0,101.23-84.48,185.7-185.71,185.7-72,0-135.46-42.73-166.16-103.82,16.79,84.94,93,150.62,182.24,150.62,101.24,0,185.71-84.47,185.71-185.71A182,182,0,0,0,2961.25,5106Z" transform="translate(-2046.48 -4475.68)"/><path class="a0932097-4bb7-4c25-97a0-29f5c6e97ac9" d="M2523.77,4779.34c-15.54,0-15.54,24.12,0,24.12S2539.33,4779.34,2523.77,4779.34Z" transform="translate(-2046.48 -4475.68)"/><path class="a0932097-4bb7-4c25-97a0-29f5c6e97ac9" d="M2379.07,4882.25c-15.55,0-15.55,24.12,0,24.12S2394.62,4882.25,2379.07,4882.25Z" transform="translate(-2046.48 -4475.68)"/><path class="a0932097-4bb7-4c25-97a0-29f5c6e97ac9" d="M2459.46,5027c-15.56,0-15.56,24.11,0,24.11S2475,5027,2459.46,5027Z" transform="translate(-2046.48 -4475.68)"/><path class="a0932097-4bb7-4c25-97a0-29f5c6e97ac9" d="M2610.6,4998c-15.55,0-15.55,24.12,0,24.12S2626.16,4998,2610.6,4998Z" transform="translate(-2046.48 -4475.68)"/><path class="a0932097-4bb7-4c25-97a0-29f5c6e97ac9" d="M2504.48,4891.9c-15.55,0-15.55,24.12,0,24.12S2520,4891.9,2504.48,4891.9Z" transform="translate(-2046.48 -4475.68)"/><path class="a0932097-4bb7-4c25-97a0-29f5c6e97ac9" d="M2330.83,4972.29h-6.43a12.06,12.06,0,0,0,0,24.12h6.43a12.06,12.06,0,0,0,0-24.12Z" transform="translate(-2046.48 -4475.68)"/><path class="a0932097-4bb7-4c25-97a0-29f5c6e97ac9" d="M2729.58,4875.81c-15.55,0-15.55,24.12,0,24.12S2745.14,4875.81,2729.58,4875.81Z" transform="translate(-2046.48 -4475.68)"/><path class="a0932097-4bb7-4c25-97a0-29f5c6e97ac9" d="M2729.58,4734.32c-15.55,0-15.55,24.12,0,24.12S2745.14,4734.32,2729.58,4734.32Z" transform="translate(-2046.48 -4475.68)"/><path class="a0932097-4bb7-4c25-97a0-29f5c6e97ac9" d="M2453,4695.73c-15.54,0-15.54,24.12,0,24.12S2468.58,4695.73,2453,4695.73Z" transform="translate(-2046.48 -4475.68)"/><path class="a0932097-4bb7-4c25-97a0-29f5c6e97ac9" d="M2298.68,4821.14c-15.56,0-15.56,24.12,0,24.12S2314.22,4821.14,2298.68,4821.14Z" transform="translate(-2046.48 -4475.68)"/><path class="a0932097-4bb7-4c25-97a0-29f5c6e97ac9" d="M2356.56,4715c-15.55,0-15.55,24.12,0,24.12S2372.11,4715,2356.56,4715Z" transform="translate(-2046.48 -4475.68)"/><path class="a0932097-4bb7-4c25-97a0-29f5c6e97ac9" d="M2430.52,4785.77c-15.56,0-15.56,24.12,0,24.12S2446.07,4785.77,2430.52,4785.77Z" transform="translate(-2046.48 -4475.68)"/><path class="a0932097-4bb7-4c25-97a0-29f5c6e97ac9" d="M2201.79,4982.36c-15.55,0-15.55,24.12,0,24.12S2217.34,4982.36,2201.79,4982.36Z" transform="translate(-2046.48 -4475.68)"/><path class="a0932097-4bb7-4c25-97a0-29f5c6e97ac9" d="M2201.79,5243.67c-15.55,0-15.55,24.12,0,24.12S2217.34,5243.67,2201.79,5243.67Z" transform="translate(-2046.48 -4475.68)"/><path class="a0932097-4bb7-4c25-97a0-29f5c6e97ac9" d="M2363.42,5175.28c-15.55,0-15.55,24.11,0,24.11S2379,5175.28,2363.42,5175.28Z" transform="translate(-2046.48 -4475.68)"/><path class="a0932097-4bb7-4c25-97a0-29f5c6e97ac9" d="M2879.52,5195.37c-15.55,0-15.55,24.12,0,24.12S2895.08,5195.37,2879.52,5195.37Z" transform="translate(-2046.48 -4475.68)"/><path class="a0932097-4bb7-4c25-97a0-29f5c6e97ac9" d="M2757.33,5163.22c-15.56,0-15.56,24.12,0,24.12S2772.87,5163.22,2757.33,5163.22Z" transform="translate(-2046.48 -4475.68)"/><path class="a0932097-4bb7-4c25-97a0-29f5c6e97ac9" d="M2770.19,5224.32c-15.56,0-15.56,24.12,0,24.12S2785.74,5224.32,2770.19,5224.32Z" transform="translate(-2046.48 -4475.68)"/><path class="a0932097-4bb7-4c25-97a0-29f5c6e97ac9" d="M2834.5,5150.35c-15.55,0-15.55,24.12,0,24.12S2850.05,5150.35,2834.5,5150.35Z" transform="translate(-2046.48 -4475.68)"/><path class="a0932097-4bb7-4c25-97a0-29f5c6e97ac9" d="M2736,5091.27c-15.56,0-15.56,24.12,0,24.12S2751.57,5091.27,2736,5091.27Z" transform="translate(-2046.48 -4475.68)"/><path class="a0932097-4bb7-4c25-97a0-29f5c6e97ac9" d="M2658.84,4898.32c-15.56,0-15.56,24.12,0,24.12S2674.39,4898.32,2658.84,4898.32Z" transform="translate(-2046.48 -4475.68)"/><path class="a0932097-4bb7-4c25-97a0-29f5c6e97ac9" d="M2655.62,4750.4c-15.55,0-15.55,24.12,0,24.12S2671.18,4750.4,2655.62,4750.4Z" transform="translate(-2046.48 -4475.68)"/><path class="a0932097-4bb7-4c25-97a0-29f5c6e97ac9" d="M2604.17,4657.15c-15.56,0-15.56,24.11,0,24.11S2619.72,4657.15,2604.17,4657.15Z" transform="translate(-2046.48 -4475.68)"/><path class="a0932097-4bb7-4c25-97a0-29f5c6e97ac9" d="M2604.17,4837.23c-15.56,0-15.56,24.12,0,24.12S2619.72,4837.23,2604.17,4837.23Z" transform="translate(-2046.48 -4475.68)"/><path class="a0932097-4bb7-4c25-97a0-29f5c6e97ac9" d="M2855,4840.44c-15.56,0-15.56,24.12,0,24.12S2870.55,4840.44,2855,4840.44Z" transform="translate(-2046.48 -4475.68)"/><path class="a0932097-4bb7-4c25-97a0-29f5c6e97ac9" d="M2806.76,4998c-15.56,0-15.56,24.12,0,24.12S2822.31,4998,2806.76,4998Z" transform="translate(-2046.48 -4475.68)"/><path class="a0932097-4bb7-4c25-97a0-29f5c6e97ac9" d="M2491.62,5136.29c-15.55,0-15.55,24.12,0,24.12S2507.17,5136.29,2491.62,5136.29Z" transform="translate(-2046.48 -4475.68)"/><path class="a0932097-4bb7-4c25-97a0-29f5c6e97ac9" d="M2369.42,5078.41c-15.55,0-15.55,24.11,0,24.11S2385,5078.41,2369.42,5078.41Z" transform="translate(-2046.48 -4475.68)"/><path class="a0932097-4bb7-4c25-97a0-29f5c6e97ac9" d="M2636.33,5081.62c-15.56,0-15.56,24.12,0,24.12S2651.88,5081.62,2636.33,5081.62Z" transform="translate(-2046.48 -4475.68)"/><path class="a0655554-31a1-4557-8cb5-5e0665b5895f" d="M2692.08,4638.08s83.62,23.31,133,112.32" transform="translate(-2046.48 -4475.68)"/><path class="a0655554-31a1-4557-8cb5-5e0665b5895f" d="M2850.6,4810.29s11,36.88,8.37,84.42" transform="translate(-2046.48 -4475.68)"/></g><circle class="e4bf25bf-7154-475e-9a8a-15ac8a406f35" cx="2375.64" cy="4812.28" r="50" transform="translate(-4516.86 -1969.45) rotate(-38.28)"/><circle class="e4bf25bf-7154-475e-9a8a-15ac8a406f35" cx="2687.64" cy="4762.27" r="50" transform="translate(-3670.01 -3077.41) rotate(-22.6)"/><path class="f89486c5-0ac9-419f-817f-6ae4f35aa660" d="M2388.64,5342.28s102,33.61,126,91.8,33,118.2,33,118.2l101-16" transform="translate(-2046.48 -4475.68)"/><path class="f89486c5-0ac9-419f-817f-6ae4f35aa660" d="M2659.64,5304.23s102,33.61,126,91.81,33,118.19,33,118.19l101-16" transform="translate(-2046.48 -4475.68)"/><path class="f89486c5-0ac9-419f-817f-6ae4f35aa660" d="M2397.08,4901.59s55.87,75.42,174.59,47.48,122.15-99.16,122.15-99.16" transform="translate(-2046.48 -4475.68)"/><path class="efec3f78-624c-4aa3-be6c-9ee1162c8009" d="M2618.13,5050.28s-99.49-79.33-155.83-18c-58,63.19,86,218.73,206,226.23,0,0,72-68.17,105.66-138.2s18.83-151.07-38.51-160.41S2618.13,5050.28,2618.13,5050.28Z" transform="translate(-2046.48 -4475.68)"/><circle class="e4bf25bf-7154-475e-9a8a-15ac8a406f35" cx="2753.44" cy="5092.28" r="50" transform="translate(-4609.09 -1675.21) rotate(-38.28)"/><path class="f89486c5-0ac9-419f-817f-6ae4f35aa660" d="M2753.44,5092.28s52.2,86,102.2,70,64-108,64-108" transform="translate(-2046.48 -4475.68)"/><circle class="e4bf25bf-7154-475e-9a8a-15ac8a406f35" cx="2487.64" cy="5162.28" r="50" transform="translate(-4709.6 -1824.82) rotate(-38.28)"/><path class="f89486c5-0ac9-419f-817f-6ae4f35aa660" d="M2205.64,5132.28s-20,102,66,118,216-94,216-94" transform="translate(-2046.48 -4475.68)"/></svg>