<?xml version="1.0" encoding="utf-8"?>
<!-- Generator: Adobe Illustrator 22.0.1, SVG Export Plug-In . SVG Version: 6.00 Build 0)  -->
<svg version="1.1" id="Layer_1" xmlns="http://www.w3.org/2000/svg" xmlns:xlink="http://www.w3.org/1999/xlink" x="0px" y="0px"
	 viewBox="0 0 1496 1496" style="enable-background:new 0 0 1496 1496;" xml:space="preserve">
<style type="text/css">
	.st0{fill:url(#SVGID_1_);}
	.st1{fill:url(#SVGID_2_);}
	.st2{fill:url(#SVGID_3_);}
	.st3{fill:url(#SVGID_4_);}
	.st4{fill:url(#SVGID_5_);}
	.st5{fill:url(#SVGID_6_);}
	.st6{fill:url(#SVGID_7_);}
	.st7{fill:url(#SVGID_8_);}
</style>
<g id="fc1496f1-e8a0-43bd-a904-8fb3eef830d6">
	
		<linearGradient id="SVGID_1_" gradientUnits="userSpaceOnUse" x1="261.9074" y1="144.635" x2="443.0006" y2="370.5587" gradientTransform="matrix(1 0 0 -1 0 1496)">
		<stop  offset="0" style="stop-color:#00C0F5"/>
		<stop  offset="0.25" style="stop-color:#00BCF4"/>
		<stop  offset="0.5" style="stop-color:#00B0F2"/>
		<stop  offset="0.75" style="stop-color:#009BEE"/>
		<stop  offset="1" style="stop-color:#007FE8"/>
	</linearGradient>
	<path class="st0" d="M418.7,1025.2l135.7,136.5l-268,258c-11.2,10.7-28.9,10.3-39.7-0.8l-80.8-83.8c-10.4-10.8-10.5-27.8-0.3-38.7
		l253.2-271.2"/>
	
		<linearGradient id="SVGID_2_" gradientUnits="userSpaceOnUse" x1="1297.3846" y1="144.6116" x2="1115.4186" y2="378.3375" gradientTransform="matrix(1 0 0 -1 0 1496)">
		<stop  offset="0" style="stop-color:#00C0F5"/>
		<stop  offset="0.2" style="stop-color:#00BAF4"/>
		<stop  offset="0.49" style="stop-color:#00A7F0"/>
		<stop  offset="0.82" style="stop-color:#008AEA"/>
		<stop  offset="0.92" style="stop-color:#007FE8"/>
	</linearGradient>
	<path class="st1" d="M1009.6,1166.4l266.7,257.1c9.2,8.9,23.7,9.3,33.5,0.9l94.7-82c10.4-8.9,11.5-24.6,2.6-35
		c-0.1-0.1-0.2-0.3-0.4-0.4l-257.8-285.6L1009.6,1166.4"/>
</g>
<g id="f901abb4-4ce3-4bef-a553-8d5739c648b0">
	
		<linearGradient id="SVGID_3_" gradientUnits="userSpaceOnUse" x1="1342.1774" y1="1081.9302" x2="678.0806" y2="501.6223" gradientTransform="matrix(1 0 0 -1 0 1496)">
		<stop  offset="0" style="stop-color:#0094DC"/>
		<stop  offset="0.78" style="stop-color:#005CAC"/>
	</linearGradient>
	<path class="st2" d="M576.7,1010.4L1453.4,128l-119.6,464c-4.2,16.5-13.7,31.1-27.1,41.7l-616.4,489L576.7,1010.4z"/>
	
		<linearGradient id="SVGID_4_" gradientUnits="userSpaceOnUse" x1="1172.3031" y1="1266.8284" x2="576.3377" y2="586.0953" gradientTransform="matrix(1 0 0 -1 0 1496)">
		<stop  offset="0" style="stop-color:#00C6FF"/>
		<stop  offset="1" style="stop-color:#0089F4"/>
	</linearGradient>
	<path class="st3" d="M466,893.6l110.7,116.8L1453.4,128l-466,114.6c-17.9,4.4-33.7,14.8-45,29.4L466,893.6z"/>
	
		<linearGradient id="SVGID_5_" gradientUnits="userSpaceOnUse" x1="408.8067" y1="615.2747" x2="633.6722" y2="318.2838" gradientTransform="matrix(1 0 0 -1 0 1496)">
		<stop  offset="0" style="stop-color:#00C0F5"/>
		<stop  offset="4.000000e-02" style="stop-color:#00BBF4"/>
		<stop  offset="0.27" style="stop-color:#00A1EF"/>
		<stop  offset="0.5" style="stop-color:#008EEB"/>
		<stop  offset="0.74" style="stop-color:#0083E9"/>
		<stop  offset="1" style="stop-color:#007FE8"/>
	</linearGradient>
	<polygon class="st4" points="378,799.2 350.8,965.6 616.4,1224 771.2,1197.9 	"/>
	
		<linearGradient id="SVGID_6_" gradientUnits="userSpaceOnUse" x1="1170.2025" y1="603.0323" x2="879.1097" y2="272.3989" gradientTransform="matrix(1 0 0 -1 0 1496)">
		<stop  offset="0" style="stop-color:#00C0F5"/>
		<stop  offset="4.000000e-02" style="stop-color:#00BBF4"/>
		<stop  offset="0.27" style="stop-color:#00A1EF"/>
		<stop  offset="0.5" style="stop-color:#008EEB"/>
		<stop  offset="0.74" style="stop-color:#0083E9"/>
		<stop  offset="1" style="stop-color:#007FE8"/>
	</linearGradient>
	<polygon class="st5" points="757.4,1218.1 1196.6,777.2 1232.6,965.8 947.2,1249.2 	"/>
</g>
<g id="bb377b40-bcf3-41a7-998b-ce609150ba0e">
	
		<linearGradient id="SVGID_7_" gradientUnits="userSpaceOnUse" x1="216.0023" y1="1079.4012" x2="885.6534" y2="526.0444" gradientTransform="matrix(1 0 0 -1 0 1496)">
		<stop  offset="0" style="stop-color:#00A2EA"/>
		<stop  offset="1" style="stop-color:#0076D6"/>
	</linearGradient>
	<path class="st6" d="M112.6,128l862.2,872.3l-121.4,125.9L240,639.5c-13.3-10.6-22.5-25.4-26.1-42L112.6,128z"/>
	
		<linearGradient id="SVGID_8_" gradientUnits="userSpaceOnUse" x1="347.7364" y1="1232.1077" x2="1028.2842" y2="669.7849" gradientTransform="matrix(1 0 0 -1 0 1496)">
		<stop  offset="0" style="stop-color:#00C7F9"/>
		<stop  offset="1" style="stop-color:#0095EF"/>
	</linearGradient>
	<path class="st7" d="M579.9,247.3L112.6,128l862.2,872.3l120.6-114.8L623.3,275.8C612.4,261.7,597.1,251.7,579.9,247.3z"/>
</g>
</svg>
