<?xml version="1.0" encoding="utf-8"?>
<!-- Generator: Adobe Illustrator 22.0.1, SVG Export Plug-In . SVG Version: 6.00 Build 0)  -->
<svg version="1.1" id="a72fd1d0-701d-4324-b7ce-471c52178104"
	 xmlns="http://www.w3.org/2000/svg" xmlns:xlink="http://www.w3.org/1999/xlink" x="0px" y="0px" viewBox="0 0 1496 1496"
	 style="enable-background:new 0 0 1496 1496;" xml:space="preserve">
<path d="M1327,632.8c3.9-3.1,6.7-7.4,7.8-12.3l110.6-464.2c2.8-11.9-4.6-23.8-16.5-26.6c-3.3-0.8-6.8-0.8-10.1,0L954.6,240.3
	c-4.8,1.1-9.2,3.9-12.2,7.8L783,450.9L623.7,248.1c-3.1-3.9-7.4-6.6-12.2-7.8L147.3,129.8c-11.9-2.8-23.8,4.6-26.6,16.5
	c-0.8,3.3-0.8,6.8,0,10.1l110.5,464.1c1.1,4.9,3.9,9.2,7.8,12.3l248,194.8l-15.5,19.8l-70.7-70.8c-8.6-8.6-22.6-8.6-31.3,0
	c-3.4,3.4-5.6,7.8-6.2,12.5l-22.1,154.7c-1,6.9,1.3,13.8,6.2,18.7l50.7,50.7l-240.4,240.4c-25.9,25.8-25.9,67.8-0.1,93.7
	c0,0,0.1,0.1,0.1,0.1l70.1,70.1c25.9,25.8,67.8,25.8,93.7,0L561.9,1177l50.7,50.7c4.1,4.1,9.7,6.5,15.5,6.5c1,0,2.1-0.1,3.1-0.2
	l151.7-21.7l151.7,21.7c6.9,0.9,13.8-1.4,18.8-6.3l50.7-50.7l240.5,240.4c25.9,25.9,67.8,25.9,93.7,0l70.1-70.1
	c25.8-25.9,25.8-67.9,0-93.8L1168,1013.1l50.7-50.7c4.9-4.9,7.2-11.9,6.2-18.7L1202.8,789c-1.7-12.1-12.9-20.5-25-18.8
	c-4.7,0.7-9.1,2.9-12.5,6.2l-70.8,70.8l-15.5-19.8L1327,632.8z M972.2,281.6l421.9-100.5l-100.5,421.7l-241.9,190.1L811.1,486.7
	L972.2,281.6z M181.8,222.1l769.1,769.1l-81,81L272.4,602.8L181.8,222.1z M783,1158.8l-55.3-55.3l55.3-43.5l55.3,43.4L783,1158.8z
	 M747.2,1032l-51,40.1l-81-81l35.1-35.1L747.2,1032z M521.8,854.8l93.6,73.5L584,959.7l-81-80.9L521.8,854.8z M290.2,1386.2
	c-8.6,8.6-22.6,8.6-31.2,0c0,0,0,0,0,0l-70.1-70.1c-8.6-8.6-8.6-22.6,0-31.2c0,0,0,0,0,0l152-152l101.4,101.4L290.2,1386.2z
	 M473.5,1202.9l-101.4-101.4l57.1-57l101.4,101.4L473.5,1202.9z M636,1188.6l-58.5-58.5L444.9,997.5l-58.5-58.5l14.3-100L736,1174.4
	L636,1188.6z M1035.4,1145.8l101.4-101.2l57.1,57l-101.4,101.3L1035.4,1145.8z M1377.2,1316.1l-70.1,70.1c-8.7,8.4-22.5,8.4-31.3,0
	l-152-152l101.4-101.4l152,152C1385.8,1293.5,1385.8,1307.5,1377.2,1316.1z M1179.6,939.1l-58.5,58.5l-132.6,132.6l-58.5,58.5
	l-100-14.3L1165.3,839L1179.6,939.1z M982.1,959.8L549.2,527h145.6v-44.2H505l-44.2-44.2h189.7v-44.2H416.6L213.1,190.9l380.6,90.6
	L1063,878.8L982.1,959.8z"/>
<path d="M834.2,632.9H928V650h-93.9V632.9z"/>
<path d="M817.1,667.1h76.8v17.1h-76.8V667.1z"/>
</svg>
