<svg id="Capa_1" enable-background="new 0 0 512.044 512.044" height="512" viewBox="0 0 512.044 512.044" width="512" xmlns="http://www.w3.org/2000/svg"><g><path d="m261.715 170.94-5.693 5.693-5.693-5.693c-23.823-23.824-62.587-23.824-86.41 0-23.845 23.845-23.916 62.495 0 86.412l81.497 81.497c5.857 5.857 15.355 5.858 21.213 0 92.346-92.346 80.486-80.422 81.497-81.497 23.878-23.877 23.883-62.529 0-86.411-23.86-23.86-62.516-23.896-86.411-.001zm65.198 65.198-70.891 70.89-70.891-70.89c-12.208-12.209-12.101-31.883 0-43.985 12.157-12.155 31.827-12.156 43.984 0l16.3 16.299c5.857 5.857 15.355 5.857 21.213 0l16.3-16.3c12.172-12.172 31.85-12.134 43.984 0 12.155 12.157 12.156 31.83.001 43.986z"/><path d="m510.326 195.527-48-152c-1.47-4.655-5.113-8.304-9.767-9.78-113.448-35.998-105.221-33.703-108.537-33.703-188.977 0-177.357-.307-180.537.703l-104 33c-4.653 1.477-8.297 5.125-9.767 9.78l-48 152c-2.364 7.486 1.444 15.529 8.732 18.444l70.572 28.229v254.844c0 8.284 6.716 15 15 15h320c8.284 0 15-6.716 15-15v-254.844l70.571-28.229c7.288-2.915 11.097-10.958 8.733-18.444zm-200.035-165.483c-7.46 20.043-29.3 35-54.27 35s-46.81-14.957-54.27-35zm-199.269 452v-35h290v35zm320-272.156v-9.844c0-8.284-6.716-15-15-15s-15 6.716-15 15v217h-290c0-6.908 0-205.523 0-217 0-8.284-6.716-15-15-15s-15 6.716-15 15v9.844l-46.505-18.602 41.464-131.3c98.855-31.367 94.244-29.942 94.582-29.942 7.658 36.967 43.062 65 85.459 65s77.802-28.033 85.459-65c.338 0-4.44-1.478 94.582 29.942l41.464 131.3z"/></g></svg>