<?xml version="1.0" encoding="utf-8"?>
<!-- Generator: Adobe Illustrator 25.2.0, SVG Export Plug-In . SVG Version: 6.00 Build 0)  -->
<svg version="1.1" xmlns="http://www.w3.org/2000/svg" xmlns:xlink="http://www.w3.org/1999/xlink" x="0px" y="0px"
	 viewBox="0 0 64 64" style="enable-background:new 0 0 64 64;" xml:space="preserve">
<style type="text/css">
	.st0{fill:#8EC761;}
	.st1{fill:#3BB78F;}
	.st2{fill-rule:evenodd;clip-rule:evenodd;fill:#1A6002;}
	.st3{display:none;fill-rule:evenodd;clip-rule:evenodd;fill:#1A6002;}
	.st4{display:none;}
	.st5{display:inline;fill:#DBCDF9;}
	.st6{fill:#1A6002;}
	.st7{fill:url(#SVGID_1_);}
	.st8{fill:url(#SVGID_2_);}
	.st9{fill:url(#SVGID_3_);}
	.st10{fill:url(#SVGID_4_);}
	.st11{fill:url(#SVGID_5_);}
	.st12{fill:url(#SVGID_6_);}
</style>
<g id="Layer_1" xmlns:v="https://vecta.io/nano">
	<path class="st0" d="M61,22.9c0.6,0.6,0.7,1.7,0.2,2.4c-9.5,13.6-21.3,25.5-34.8,35.1l-1.1,0.8c-0.8,0.6-1.9,0.5-2.5-0.2L18,56.2
		c2.9-3,2.8-7.7-0.2-10.6c-2.9-2.8-7.5-2.8-10.5,0l-4.4-4.4c-0.8-0.8-0.7-2.2,0.2-2.9l1.1-0.8c13.2-9.4,24.7-21,34-34.3
		c0.6-0.8,1.7-1,2.5-0.4C40.9,2.8,41,2.9,41,2.9l4.5,4.5c-2.9,3-2.8,7.7,0.2,10.6c2.9,2.8,7.5,2.8,10.4,0L61,22.9L61,22.9z"/>
	<path class="st1" d="M63.2,24.3L46,46L23.7,62.9l-4.3-4.3l-1.5-1.9l1.5-2.2l0.5-2.2l-0.3-2.4l-0.9-2.2l-1.5-1.8l-1.8-1.2L13.6,44
		h-2.4l-2.5,0.9l-1.5,1.3l-3.6-4.3l5.8-0.9c18-2.7,35.1-10,49.5-21.1L63.2,24.3L63.2,24.3z"/>
	<g>
		<path class="st2" d="M15.8,56.4c0-0.6,0.3-1.2,0.7-1.7l0,0c2-2,1.9-5.3-0.2-7.3c-2-1.9-5.1-1.9-7.1,0l0,0c-0.9,0.9-2.4,0.9-3.4,0
			c0,0,0,0,0,0l-4.6-4.6c-1.7-1.7-1.7-4.4,0-6.1c0.2-0.2,0.3-0.3,0.5-0.5l1.1-0.8l1.4,1.9l-1.1,0.8c-1,0.7-1.1,2.1-0.2,2.9l4.6,4.6
			l0,0c2.9-2.9,7.7-2.9,10.6,0c2.9,2.9,2.9,7.7,0,10.6l0,0l4.6,4.6c0.7,0.7,1.8,0.8,2.5,0.2l1.1-0.8c13.5-9.6,25.3-21.5,34.8-35.1
			c0.5-0.7,0.4-1.8-0.2-2.4l-4.8-4.8l-0.1,0.1c-3,2.9-7.7,2.9-10.6-0.1c-2.9-2.9-2.9-7.6,0-10.5l0.1-0.1L41,2.9
			c-0.7-0.7-1.9-0.7-2.6,0c-0.1,0.1-0.1,0.2-0.2,0.2C29,16.5,17.5,28.1,4.3,37.5l-1.4-1.9c13-9.3,24.3-20.7,33.4-33.7
			c1.3-1.9,4-2.4,5.9-1c0.2,0.1,0.4,0.3,0.6,0.5l4.5,4.5c0.9,0.9,0.9,2.4,0,3.4c0,0,0,0,0,0l0,0c-2,2-1.9,5.3,0.2,7.3
			c2,1.9,5.1,1.9,7.1,0l0,0c0.9-0.9,2.4-1,3.4,0c0,0,0,0,0,0l4.8,4.8c1.5,1.5,1.7,3.8,0.5,5.4c-9.7,13.8-21.7,25.9-35.4,35.7
			l-1.1,0.8c-1.7,1.2-4.1,1-5.6-0.5l-4.6-4.6C16.1,57.7,15.8,57,15.8,56.4L15.8,56.4z"/>
		<g>
			<path id="A" class="st2" d="M32,11.3l1.1,1.1c0.5,0.5,0.5,1.2,0,1.7s-1.2,0.5-1.7,0l-1.1-1.1c-0.5-0.5-0.5-1.2,0-1.7
				S31.5,10.8,32,11.3z"/>
		</g>
		<g>
			<path id="A_1_" class="st2" d="M36.4,15.7l1.1,1.1c0.5,0.5,0.5,1.2,0,1.7c-0.5,0.5-1.2,0.5-1.7,0l-1.1-1.1
				c-0.5-0.5-0.5-1.2,0-1.7C35.2,15.2,35.9,15.2,36.4,15.7z"/>
		</g>
		<g>
			<path id="B" class="st2" d="M41.9,22.8c-0.5,0.5-1.2,0.5-1.7,0c0,0,0,0,0,0l-1.3-1.3c-0.5-0.5-0.5-1.2,0-1.7
				c0.5-0.5,1.2-0.5,1.7,0l1.3,1.3C42.3,21.6,42.3,22.4,41.9,22.8C41.9,22.8,41.9,22.8,41.9,22.8z"/>
		</g>
		<g>
			<path id="B_1_" class="st2" d="M46.3,27.2c-0.5,0.5-1.2,0.5-1.7,0c0,0,0,0,0,0L43.4,26c-0.5-0.5-0.5-1.2,0-1.7
				c0.5-0.5,1.2-0.5,1.7,0l1.3,1.3C46.8,26,46.8,26.8,46.3,27.2C46.3,27.2,46.3,27.2,46.3,27.2z"/>
		</g>
		<path class="st2" d="M49.5,28.7l1.1,1.1c0.5,0.5,0.5,1.2,0,1.7c-0.5,0.5-1.2,0.5-1.7,0l-1.1-1.1c-0.5-0.5-0.5-1.2,0-1.7
			C48.2,28.3,49,28.3,49.5,28.7L49.5,28.7z"/>
		<g>
			<path id="A_2_" class="st2" d="M53.9,33.1l1.1,1.1c0.5,0.5,0.5,1.2,0,1.7s-1.2,0.5-1.7,0l-1.1-1.1c-0.5-0.5-0.5-1.2,0-1.7
				S53.4,32.7,53.9,33.1z"/>
		</g>
		<path class="st3" d="M25.8,29.7c-1.3-1.3-1.3-3.4,0-4.6c1.5-1.5,3.9-1.2,5,0.5l2.9,4.3c2.5-0.8,5.3-0.7,7,1.1
			c1.6,1.6,1.9,4,1.3,6.2c-0.6,2.3-1.9,4.7-4,6.7s-4.5,3.4-6.7,4c-2.3,0.5-4.6,0.3-6.2-1.3c-1.8-1.8-1.9-4.5-1.1-7l-4.3-2.9
			c-1.7-1.2-1.9-3.6-0.5-5c1.3-1.3,3.4-1.3,4.6,0l3,3l0.9-1l1-0.9L25.8,29.7L25.8,29.7z"/>
	</g>
	<g class="st4">
		<ellipse transform="matrix(0.7071 -0.7071 0.7071 0.7071 -19.9594 32.7237)" class="st5" cx="29.5" cy="40.5" rx="1.4" ry="2.1"/>
		<ellipse transform="matrix(0.7071 -0.7071 0.7071 0.7071 -14.6198 34.9355)" class="st5" cx="34.9" cy="35.1" rx="1.4" ry="2.1"/>
	</g>
</g>
<g id="Layer_2">
	<g id="ac795ad8-167d-4c5c-a687-1a3c68dd432d">
		<g id="a79f26c0-bec5-4e8a-83f5-1453a243959e">
			<g>
				<path class="st6" d="M29.5,30.6c3.8-1.7,8.5-1.7,12,0.6c-2,4-5.3,7.1-9.2,8.5c-4,1.5-8.3,1.3-12.2-0.5
					C22.6,35.4,25.6,32.3,29.5,30.6z"/>
				
					<linearGradient id="SVGID_1_" gradientUnits="userSpaceOnUse" x1="24.007" y1="31.9417" x2="37.1846" y2="44.2203" gradientTransform="matrix(-0.3529 -0.9356 -0.9356 0.3529 75.5885 50.7616)">
					<stop  offset="3.482590e-02" style="stop-color:#A98D58"/>
					<stop  offset="0.1001" style="stop-color:#B7995F"/>
					<stop  offset="0.2238" style="stop-color:#DDB771"/>
					<stop  offset="0.3085" style="stop-color:#FACF7F"/>
					<stop  offset="0.5022" style="stop-color:#FCE88C"/>
					<stop  offset="0.6269" style="stop-color:#FDFA96"/>
					<stop  offset="0.7481" style="stop-color:#F6E18E"/>
					<stop  offset="1" style="stop-color:#E6A37B"/>
				</linearGradient>
				<path class="st7" d="M17.4,40c0.7,0.1,1.4-0.1,2.1-0.3c0.6-0.1,1.2-0.3,1.8-0.4c0.6-0.1,1.2-0.3,1.8-0.4
					c2.2-0.6,4.4-1.3,6.6-2.1c4-1.5,7.9-3.3,11.7-5.4c0.1,0,0.1-0.1,0-0.1c-1.8,0.7-3.6,1.4-5.4,2.2c-1.8,0.8-3.7,1.7-5.5,2.4
					c-4.2,1.6-8.4,2.8-12.8,3.5C17,39.5,16.8,39.9,17.4,40z"/>
				
					<linearGradient id="SVGID_2_" gradientUnits="userSpaceOnUse" x1="30.4123" y1="40.7279" x2="31.7931" y2="42.0146" gradientTransform="matrix(-0.3529 -0.9356 -0.9356 0.3529 75.5885 50.7616)">
					<stop  offset="3.482590e-02" style="stop-color:#A98D58"/>
					<stop  offset="0.1001" style="stop-color:#B7995F"/>
					<stop  offset="0.2238" style="stop-color:#DDB771"/>
					<stop  offset="0.3085" style="stop-color:#FACF7F"/>
					<stop  offset="0.5022" style="stop-color:#FCE88C"/>
					<stop  offset="0.6269" style="stop-color:#FDFA96"/>
					<stop  offset="0.7481" style="stop-color:#F6E18E"/>
					<stop  offset="1" style="stop-color:#E6A37B"/>
				</linearGradient>
				<path class="st8" d="M24.4,38.1c1.2-1.3,2.3-2.6,3.5-3.8c0-0.1,0-0.1,0,0c-1.3,1.2-2.5,2.4-3.8,3.6C23.7,38.3,24,38.6,24.4,38.1
					z"/>
				
					<linearGradient id="SVGID_3_" gradientUnits="userSpaceOnUse" x1="26.8941" y1="38.2417" x2="29.8542" y2="40.9999" gradientTransform="matrix(-0.3529 -0.9356 -0.9356 0.3529 75.5885 50.7616)">
					<stop  offset="3.482590e-02" style="stop-color:#A98D58"/>
					<stop  offset="0.1001" style="stop-color:#B7995F"/>
					<stop  offset="0.2238" style="stop-color:#DDB771"/>
					<stop  offset="0.3085" style="stop-color:#FACF7F"/>
					<stop  offset="0.5022" style="stop-color:#FCE88C"/>
					<stop  offset="0.6269" style="stop-color:#FDFA96"/>
					<stop  offset="0.7481" style="stop-color:#F6E18E"/>
					<stop  offset="1" style="stop-color:#E6A37B"/>
				</linearGradient>
				<path class="st9" d="M26.8,37.9c1.2,0.3,2.5,0.5,3.7,0.8c0.1,0,0.1,0,0-0.1c-1.2-0.4-2.4-0.7-3.6-1.1
					C26.5,37.4,26.4,37.8,26.8,37.9z"/>
				
					<linearGradient id="SVGID_4_" gradientUnits="userSpaceOnUse" x1="30.7783" y1="35.0007" x2="31.282" y2="35.47" gradientTransform="matrix(-0.3529 -0.9356 -0.9356 0.3529 75.5885 50.7616)">
					<stop  offset="3.482590e-02" style="stop-color:#A98D58"/>
					<stop  offset="0.1001" style="stop-color:#B7995F"/>
					<stop  offset="0.2238" style="stop-color:#DDB771"/>
					<stop  offset="0.3085" style="stop-color:#FACF7F"/>
					<stop  offset="0.5022" style="stop-color:#FCE88C"/>
					<stop  offset="0.6269" style="stop-color:#FDFA96"/>
					<stop  offset="0.7481" style="stop-color:#F6E18E"/>
					<stop  offset="1" style="stop-color:#E6A37B"/>
				</linearGradient>
				<path class="st10" d="M30.9,36c0.7-1.2,1.4-2.4,2.1-3.7c0,0,0-0.1,0,0c-0.8,1.1-1.6,2.3-2.4,3.5C30.2,36.1,30.6,36.4,30.9,36z"
					/>
				
					<linearGradient id="SVGID_5_" gradientUnits="userSpaceOnUse" x1="27.3261" y1="32.0832" x2="29.8982" y2="34.4799" gradientTransform="matrix(-0.3529 -0.9356 -0.9356 0.3529 75.5885 50.7616)">
					<stop  offset="3.482590e-02" style="stop-color:#A98D58"/>
					<stop  offset="0.1001" style="stop-color:#B7995F"/>
					<stop  offset="0.2238" style="stop-color:#DDB771"/>
					<stop  offset="0.3085" style="stop-color:#FACF7F"/>
					<stop  offset="0.5022" style="stop-color:#FCE88C"/>
					<stop  offset="0.6269" style="stop-color:#FDFA96"/>
					<stop  offset="0.7481" style="stop-color:#F6E18E"/>
					<stop  offset="1" style="stop-color:#E6A37B"/>
				</linearGradient>
				<path class="st11" d="M32.9,35.5c1.1,0.2,2.2,0.4,3.2,0.6c0,0,0.1,0,0-0.1c-1.1-0.3-2.1-0.6-3.2-0.9
					C32.6,35,32.5,35.5,32.9,35.5z"/>
				
					<linearGradient id="SVGID_6_" gradientUnits="userSpaceOnUse" x1="30.2858" y1="30.6043" x2="30.7257" y2="31.0142" gradientTransform="matrix(-0.3529 -0.9356 -0.9356 0.3529 75.5885 50.7616)">
					<stop  offset="3.482590e-02" style="stop-color:#A98D58"/>
					<stop  offset="0.1001" style="stop-color:#B7995F"/>
					<stop  offset="0.2238" style="stop-color:#DDB771"/>
					<stop  offset="0.3085" style="stop-color:#FACF7F"/>
					<stop  offset="0.5022" style="stop-color:#FCE88C"/>
					<stop  offset="0.6269" style="stop-color:#FDFA96"/>
					<stop  offset="0.7481" style="stop-color:#F6E18E"/>
					<stop  offset="1" style="stop-color:#E6A37B"/>
				</linearGradient>
				<path class="st12" d="M35.2,34.1c-0.1,0.1,0,0.2,0.1,0.3c0.1,0.1,0.2,0,0.3-0.1c0.5-0.8,0.9-1.6,1.4-2.4c0,0,0,0,0,0
					c0,0,0,0,0,0c0,0,0,0,0,0C36.3,32.6,35.7,33.3,35.2,34.1C35.2,34.1,35.2,34.1,35.2,34.1z"/>
			</g>
		</g>
	</g>
</g>
</svg>
