<?xml version="1.0" encoding="utf-8"?>
<!-- Generator: Adobe Illustrator 25.2.0, SVG Export Plug-In . SVG Version: 6.00 Build 0)  -->
<svg version="1.1" id="Layer_1" xmlns:v="https://vecta.io/nano" opacity="0.1"
	 xmlns="http://www.w3.org/2000/svg" xmlns:xlink="http://www.w3.org/1999/xlink" x="0px" y="0px" viewBox="0 0 193 230"
	 style="enable-background:new 0 0 193 230;" xml:space="preserve">
<style type="text/css">
	.st0{fill:#DBCDF9;}
	.st1{fill:#A28BD4;}
	.st2{fill-rule:evenodd;clip-rule:evenodd;fill:#633001;}
	.st3{fill:#8EC761;}
	.st4{fill:#3BB78F;}
	.st5{fill-rule:evenodd;clip-rule:evenodd;fill:#1A6002;}
	.st6{display:none;fill-rule:evenodd;clip-rule:evenodd;fill:#1A6002;}
	.st7{display:none;}
	.st8{display:inline;fill:#DBCDF9;}
	.st9{fill:#1A6002;}
	.st10{fill:url(#SVGID_1_);}
	.st11{fill:url(#SVGID_2_);}
	.st12{fill:url(#SVGID_3_);}
	.st13{fill:url(#SVGID_4_);}
	.st14{fill:url(#SVGID_5_);}
	.st15{fill:url(#SVGID_6_);}
</style>
<path class="st0" d="M219.3,82.4c2.3,2.3,2.6,5.9,0.8,8.6c-34.2,48.9-76.6,91.6-125.2,126.3L91,220c-2.8,2-6.7,1.7-9.1-0.8L64.6,202
	c10.2-10.6,10.1-27.4-0.3-37.8s-27.3-10.5-37.8-0.3l-15.9-15.9c-2.7-2.7-2.7-7.1,0-9.8c0.3-0.3,0.6-0.5,0.9-0.7l3.8-2.7
	c47.4-33.8,88.8-75.5,122.2-123.3c2.3-3.3,7.1-3.8,10-0.9l16.2,16.2c-10.2,10.6-10,27.4,0.4,37.8s27.2,10.5,37.8,0.4L219.3,82.4
	L219.3,82.4z"/>
<path class="st1" d="M227,87.2l-61.8,78.2l-79.9,60.5l-15.4-15.5l-5.5-6.7l5.5-8l1.9-8l-1.1-8.6l-3.2-8l-5.3-6.4l-6.4-4.3l-7-2.1
	h-8.6l-9.1,3.2l-5.4,4.8L13,150.7l20.9-3.1c64.8-9.7,126-35.8,177.7-75.9L227,87.2L227,87.2z"/>
<g>
	<path class="st2" d="M56.8,202.7c0-2.3,0.9-4.5,2.5-6.1l0,0c7.2-7.2,7.2-18.9,0-26.1s-18.9-7.2-26.1,0l0,0c-3.3,3.3-8.8,3.4-12.1,0
		c0,0,0,0,0,0L4.5,154c-6.8-6.8-5.8-18,2-23.5l3.8-2.7l5,7l-3.8,2.7c-3.1,2.2-3.8,6.5-1.6,9.7c0.2,0.3,0.5,0.6,0.7,0.9l16.6,16.6
		l0.1-0.1c10.5-10.5,27.6-10.5,38.1,0s10.5,27.6,0,38.1l0,0l0,0l16.5,16.5c2.4,2.4,6.3,2.8,9.1,0.8l3.8-2.7
		c48.6-34.7,91-77.4,125.2-126.3c1.9-2.7,1.6-6.3-0.8-8.6L202,65l-0.2,0.2l-0.2,0.2c-10.6,10.3-27.5,10.3-38-0.2s-10.5-27.4-0.2-38
		l0.2-0.2l0.2-0.2l-16.3-16.3c-2.6-2.6-6.7-2.6-9.3,0c-0.3,0.3-0.5,0.6-0.7,0.9c-33.4,47.7-74.7,89.4-122.2,123.3l-5-7
		C57,94.4,97.6,53.4,130.5,6.5c5.4-7.7,16.4-8.7,23.1-2l16.3,16.3c3.3,3.3,3.3,8.8,0,12.1c0,0,0,0-0.1,0.1l-0.1,0.1
		c-7.2,7.2-7.2,18.9,0,26.1s18.9,7.2,26.1,0l0.1-0.1c3.3-3.4,8.7-3.4,12.1-0.1c0,0,0,0,0.1,0.1l17.4,17.4c5.2,5.2,6,13.5,1.7,19.6
		c-34.8,49.7-77.8,93.1-127.2,128.4L96,227c-6.2,4.4-14.7,3.7-20.1-1.7l-16.5-16.5C57.7,207.2,56.8,205,56.8,202.7L56.8,202.7z"/>
	<path class="st2" d="M115,40.4l3.8,3.8c1.6,1.7,1.6,4.4-0.1,6.1c-1.7,1.6-4.3,1.6-6,0l-3.8-3.8c-1.6-1.7-1.6-4.4,0.1-6.1
		C110.7,38.9,113.3,38.9,115,40.4z M130.9,56.3l3.8,3.8c1.6,1.7,1.6,4.4-0.1,6.1c-1.7,1.6-4.2,1.6-5.9,0l-3.8-3.8
		c-1.6-1.7-1.6-4.4,0.1-6.1C126.6,54.7,129.2,54.7,130.9,56.3L130.9,56.3z M150.5,82c-1.7,1.7-4.4,1.7-6.1,0l-4.5-4.5
		c-1.6-1.7-1.6-4.4,0.1-6.1c1.7-1.6,4.3-1.6,5.9,0l4.5,4.5C152.2,77.7,152.2,80.4,150.5,82L150.5,82z M166.4,97.9
		c-1.7,1.7-4.4,1.7-6.1,0l-4.5-4.5c-1.6-1.7-1.6-4.4,0.1-6.1c1.7-1.6,4.3-1.6,6,0l4.5,4.5C168.1,93.6,168.1,96.3,166.4,97.9z
		 M177.8,103.2l3.8,3.8c1.6,1.7,1.6,4.4-0.1,6.1c-1.7,1.6-4.3,1.6-5.9,0l-3.8-3.8c-1.6-1.7-1.6-4.4,0.1-6.1
		C173.5,101.6,176.1,101.6,177.8,103.2z M193.6,119.1l3.8,3.8c1.6,1.7,1.6,4.4-0.1,6.1c-1.7,1.6-4.3,1.6-5.9,0l-3.8-3.8
		c-1.6-1.7-1.6-4.4,0.1-6.1C189.4,117.5,192,117.5,193.6,119.1z M92.8,106.7c-4.6-4.6-4.6-12.1,0-16.6c5.2-5.2,13.9-4.4,18,1.7
		l10.5,15.3c9.2-2.9,18.9-2.5,25.3,3.9c5.8,5.8,6.7,14.3,4.7,22.4c-2,8.2-7,16.9-14.4,24.2s-16,12.4-24.2,14.4
		c-8.1,2-16.7,1.1-22.4-4.7c-6.4-6.4-6.8-16-3.9-25.1L71,131.7c-6.1-4.2-6.9-12.8-1.7-18c4.6-4.6,12.1-4.6,16.6,0l10.6,10.6
		c1.1-1.2,2.2-2.4,3.4-3.6c1.1-1.1,2.3-2.2,3.5-3.2L92.8,106.7L92.8,106.7z"/>
</g>
<g>
	
		<ellipse transform="matrix(0.7071 -0.7071 0.7071 0.7071 -71.7291 117.6007)" class="st0" cx="106.1" cy="145.4" rx="5.1" ry="7.5"/>
	
		<ellipse transform="matrix(0.7071 -0.7071 0.7071 0.7071 -52.5401 125.5489)" class="st0" cx="125.3" cy="126.2" rx="5.1" ry="7.5"/>
</g>
<path class="st3" d="M221.7,82.7c2.3,2.3,2.6,6,0.8,8.7c-34.4,49.2-77,92.1-125.8,127l-3.9,2.8c-2.8,2-6.7,1.7-9.2-0.8L66.2,203
	c10.4-10.8,10.2-27.9-0.6-38.4c-10.5-10.2-27.3-10.2-37.8,0l-16-16c-3-3-2.6-8.1,0.9-10.6l3.9-2.8c47.7-34,89.2-75.9,122.8-123.9
	c2.1-3,6.2-3.7,9.2-1.6c0.3,0.2,0.6,0.5,0.9,0.7l16.3,16.3c-10.4,10.8-10.1,28,0.7,38.4c10.5,10.1,27.2,10.1,37.7,0L221.7,82.7
	L221.7,82.7z"/>
<path class="st4" d="M229.4,87.5l-62.1,78.6L87,227l-15.5-15.6l-5.6-6.8l5.6-8.1l2-8.1l-1.1-8.6l-3.2-8.1l-5.4-6.5l-6.5-4.3l-7-2.1
	h-8.6l-9.1,3.2l-5.4,4.8l-12.9-15.6l21-3.1c65.1-9.7,126.6-36,178.6-76.3L229.4,87.5L229.4,87.5z"/>
<g>
	<path class="st5" d="M58.4,203.7c0-2.3,0.9-4.5,2.5-6.1l0,0c7.1-7.4,6.8-19.1-0.6-26.2c-7.2-6.8-18.4-6.8-25.6,0l0,0
		c-3.3,3.4-8.8,3.4-12.2,0c0,0,0,0,0,0L5.8,154.7c-6.1-6.1-6.1-15.9,0-22c0.6-0.6,1.3-1.1,1.9-1.6l3.9-2.8l5,7l-3.9,2.8
		c-3.5,2.5-3.9,7.5-0.9,10.6l16.7,16.7l0,0c10.6-10.6,27.8-10.6,38.4,0c10.6,10.6,10.6,27.7,0,38.3l-0.1,0.1l16.6,16.6
		c2.5,2.5,6.3,2.8,9.2,0.8l3.9-2.8c48.9-34.9,91.4-77.8,125.8-127c1.9-2.7,1.6-6.3-0.8-8.7l-17.4-17.4l-0.4,0.4
		c-10.7,10.5-27.8,10.4-38.4-0.3c-10.4-10.6-10.4-27.5,0-38.1l0.4-0.4l-16.4-16.4c-2.6-2.6-6.8-2.6-9.3,0c-0.3,0.3-0.5,0.6-0.7,0.9
		c-33.6,48-75.1,89.9-122.8,123.9l-5-7C58.5,94.9,99.3,53.7,132.4,6.5c4.8-6.9,14.3-8.5,21.2-3.7c0.7,0.5,1.4,1.1,2,1.7L172,20.8
		c3.4,3.4,3.4,8.8,0,12.2c0,0,0,0-0.1,0.1l-0.1,0.1c-7.1,7.4-6.8,19.1,0.6,26.2c7.2,6.8,18.4,6.8,25.6,0l0.1-0.1
		c3.3-3.4,8.8-3.4,12.2-0.1c0,0,0,0,0.1,0.1l17.4,17.4c5.3,5.3,6,13.6,1.7,19.7c-35,50-78.2,93.6-127.9,129l-3.9,2.8
		c-6.3,4.5-14.8,3.7-20.2-1.7l-16.6-16.6C59.3,208.2,58.4,206,58.4,203.7L58.4,203.7z"/>
	<g>
		<path id="A" class="st5" d="M116.8,40.6l3.8,3.8c1.7,1.7,1.7,4.4,0,6.1s-4.4,1.7-6.1,0l-3.8-3.8c-1.7-1.7-1.7-4.4,0-6.1
			C112.4,38.9,115.1,38.9,116.8,40.6z"/>
	</g>
	<g>
		<path id="A_1_" class="st5" d="M132.8,56.6l3.8,3.8c1.7,1.7,1.7,4.4,0,6.1c-1.7,1.7-4.4,1.7-6.1,0l-3.8-3.8
			c-1.7-1.7-1.7-4.4,0-6.1C128.4,54.9,131.1,54.9,132.8,56.6z"/>
	</g>
	<g>
		<path id="B" class="st5" d="M152.5,82.4c-1.7,1.7-4.4,1.7-6.1,0c0,0,0,0,0,0l-4.6-4.6c-1.7-1.7-1.7-4.4,0-6.1
			c1.7-1.7,4.4-1.7,6.1,0l4.6,4.6C154.2,78,154.2,80.7,152.5,82.4C152.5,82.4,152.5,82.4,152.5,82.4z"/>
	</g>
	<g>
		<path id="B_1_" class="st5" d="M168.5,98.4c-1.7,1.7-4.4,1.7-6.1,0c0,0,0,0,0,0l-4.6-4.6c-1.7-1.7-1.7-4.4,0-6.1
			c1.7-1.7,4.4-1.7,6.1,0l4.6,4.6C170.2,94,170.2,96.7,168.5,98.4C168.5,98.4,168.5,98.4,168.5,98.4z"/>
	</g>
	<path class="st5" d="M179.9,103.7l3.8,3.8c1.7,1.7,1.7,4.4,0,6.1c-1.7,1.7-4.4,1.7-6.1,0l-3.8-3.8c-1.7-1.7-1.7-4.4,0-6.1
		C175.5,102,178.2,102,179.9,103.7L179.9,103.7z"/>
	<g>
		<path id="A_2_" class="st5" d="M195.9,119.7l3.8,3.8c1.7,1.7,1.7,4.4,0,6.1c-1.7,1.7-4.4,1.7-6.1,0l-3.8-3.8
			c-1.7-1.7-1.7-4.4,0-6.1C191.5,118,194.2,118,195.9,119.7z"/>
	</g>
	<path class="st6" d="M94.6,107.2c-4.6-4.6-4.6-12.1,0-16.7c5.2-5.2,13.9-4.4,18.1,1.7l10.5,15.4c9.2-3,19-2.6,25.4,3.9
		c5.8,5.8,6.7,14.4,4.7,22.6c-2,8.3-7,17-14.4,24.4c-7.4,7.4-16.1,12.5-24.4,14.4c-8.2,2-16.7,1.1-22.6-4.7
		c-6.4-6.4-6.9-16.1-4-25.3l-15.4-10.6c-6.1-4.2-6.9-12.9-1.7-18.1c4.6-4.6,12.1-4.6,16.7,0l10.7,10.7l3.4-3.6l3.5-3.3L94.6,107.2
		L94.6,107.2z"/>
</g>
<g class="st7">
	<ellipse transform="matrix(0.7071 -0.7071 0.7071 0.7071 2.4534 137.1185)" class="st8" cx="166.7" cy="65.6" rx="5" ry="7.2"/>
	<ellipse transform="matrix(0.7071 -0.7071 0.7071 0.7071 21.0334 144.8146)" class="st8" cx="185.3" cy="47" rx="5" ry="7.2"/>
</g>
<g id="ac795ad8-167d-4c5c-a687-1a3c68dd432d">
	<g id="a79f26c0-bec5-4e8a-83f5-1453a243959e">
		<g>
			<path class="st9" d="M107.7,110.6c13.8-6,30.8-6.2,43.2,2.2c-7.2,14.4-19,25.5-33.1,30.8c-14.3,5.3-30.1,4.6-44-1.8
				C82.8,127.7,93.9,116.6,107.7,110.6z"/>
			
				<linearGradient id="SVGID_1_" gradientUnits="userSpaceOnUse" x1="56.8203" y1="89.8375" x2="104.4238" y2="134.1933" gradientTransform="matrix(-0.3529 -0.9356 -0.9356 0.3529 239.8351 164.3496)">
				<stop  offset="3.482590e-02" style="stop-color:#A98D58"/>
				<stop  offset="0.1001" style="stop-color:#B7995F"/>
				<stop  offset="0.2238" style="stop-color:#DDB771"/>
				<stop  offset="0.3085" style="stop-color:#FACF7F"/>
				<stop  offset="0.5022" style="stop-color:#FCE88C"/>
				<stop  offset="0.6269" style="stop-color:#FDFA96"/>
				<stop  offset="0.7481" style="stop-color:#F6E18E"/>
				<stop  offset="1" style="stop-color:#E6A37B"/>
			</linearGradient>
			<path class="st10" d="M64,144.4c2.5,0.2,5-0.4,7.6-0.9c2.1-0.5,4.2-1,6.4-1.4c2.1-0.5,4.2-1,6.3-1.6c8.1-2.2,16.1-4.8,23.9-7.7
				c14.5-5.5,28.5-12,42.1-19.5c0.2-0.1,0.2-0.3,0-0.2c-6.6,2.4-13.1,5.1-19.5,8.1c-6.6,3-13.3,6.1-19.8,8.6
				c-15,5.7-30.5,9.9-46.3,12.6C62.6,142.6,62.1,144.2,64,144.4z"/>
			
				<linearGradient id="SVGID_2_" gradientUnits="userSpaceOnUse" x1="79.9591" y1="121.5773" x2="84.9473" y2="126.2252" gradientTransform="matrix(-0.3529 -0.9356 -0.9356 0.3529 239.8351 164.3496)">
				<stop  offset="3.482590e-02" style="stop-color:#A98D58"/>
				<stop  offset="0.1001" style="stop-color:#B7995F"/>
				<stop  offset="0.2238" style="stop-color:#DDB771"/>
				<stop  offset="0.3085" style="stop-color:#FACF7F"/>
				<stop  offset="0.5022" style="stop-color:#FCE88C"/>
				<stop  offset="0.6269" style="stop-color:#FDFA96"/>
				<stop  offset="0.7481" style="stop-color:#F6E18E"/>
				<stop  offset="1" style="stop-color:#E6A37B"/>
			</linearGradient>
			<path class="st11" d="M89.4,137.7c4.3-4.6,8.4-9.3,12.7-13.9c0.2-0.2,0.1-0.3-0.1-0.1c-4.5,4.3-9.1,8.6-13.6,13
				C86.8,138.2,88,139.3,89.4,137.7z"/>
			
				<linearGradient id="SVGID_3_" gradientUnits="userSpaceOnUse" x1="67.2497" y1="112.5961" x2="77.9431" y2="122.56" gradientTransform="matrix(-0.3529 -0.9356 -0.9356 0.3529 239.8351 164.3496)">
				<stop  offset="3.482590e-02" style="stop-color:#A98D58"/>
				<stop  offset="0.1001" style="stop-color:#B7995F"/>
				<stop  offset="0.2238" style="stop-color:#DDB771"/>
				<stop  offset="0.3085" style="stop-color:#FACF7F"/>
				<stop  offset="0.5022" style="stop-color:#FCE88C"/>
				<stop  offset="0.6269" style="stop-color:#FDFA96"/>
				<stop  offset="0.7481" style="stop-color:#F6E18E"/>
				<stop  offset="1" style="stop-color:#E6A37B"/>
			</linearGradient>
			<path class="st12" d="M98,136.9c4.4,0.9,8.9,1.8,13.4,2.7c0.2,0,0.2-0.1,0-0.2c-4.3-1.3-8.7-2.7-13-4
				C96.9,135,96.5,136.6,98,136.9z"/>
			
				<linearGradient id="SVGID_4_" gradientUnits="userSpaceOnUse" x1="81.2814" y1="100.8878" x2="83.1009" y2="102.5832" gradientTransform="matrix(-0.3529 -0.9356 -0.9356 0.3529 239.8351 164.3496)">
				<stop  offset="3.482590e-02" style="stop-color:#A98D58"/>
				<stop  offset="0.1001" style="stop-color:#B7995F"/>
				<stop  offset="0.2238" style="stop-color:#DDB771"/>
				<stop  offset="0.3085" style="stop-color:#FACF7F"/>
				<stop  offset="0.5022" style="stop-color:#FCE88C"/>
				<stop  offset="0.6269" style="stop-color:#FDFA96"/>
				<stop  offset="0.7481" style="stop-color:#F6E18E"/>
				<stop  offset="1" style="stop-color:#E6A37B"/>
			</linearGradient>
			<path class="st13" d="M112.8,129.8c2.5-4.4,5-8.8,7.6-13.2c0.1-0.2-0.1-0.3-0.2-0.1c-2.9,4.2-5.9,8.3-8.7,12.5
				C110.5,130.5,111.9,131.3,112.8,129.8z"/>
			
				<linearGradient id="SVGID_5_" gradientUnits="userSpaceOnUse" x1="68.8102" y1="90.3487" x2="78.1021" y2="99.0066" gradientTransform="matrix(-0.3529 -0.9356 -0.9356 0.3529 239.8351 164.3496)">
				<stop  offset="3.482590e-02" style="stop-color:#A98D58"/>
				<stop  offset="0.1001" style="stop-color:#B7995F"/>
				<stop  offset="0.2238" style="stop-color:#DDB771"/>
				<stop  offset="0.3085" style="stop-color:#FACF7F"/>
				<stop  offset="0.5022" style="stop-color:#FCE88C"/>
				<stop  offset="0.6269" style="stop-color:#FDFA96"/>
				<stop  offset="0.7481" style="stop-color:#F6E18E"/>
				<stop  offset="1" style="stop-color:#E6A37B"/>
			</linearGradient>
			<path class="st14" d="M119.9,128.3c3.9,0.7,7.8,1.4,11.7,2.1c0.2,0,0.2-0.1,0-0.2c-3.8-1.1-7.6-2.3-11.4-3.4
				C119,126.4,118.6,128,119.9,128.3z"/>
			
				<linearGradient id="SVGID_6_" gradientUnits="userSpaceOnUse" x1="79.5021" y1="85.006" x2="81.0914" y2="86.4869" gradientTransform="matrix(-0.3529 -0.9356 -0.9356 0.3529 239.8351 164.3496)">
				<stop  offset="3.482590e-02" style="stop-color:#A98D58"/>
				<stop  offset="0.1001" style="stop-color:#B7995F"/>
				<stop  offset="0.2238" style="stop-color:#DDB771"/>
				<stop  offset="0.3085" style="stop-color:#FACF7F"/>
				<stop  offset="0.5022" style="stop-color:#FCE88C"/>
				<stop  offset="0.6269" style="stop-color:#FDFA96"/>
				<stop  offset="0.7481" style="stop-color:#F6E18E"/>
				<stop  offset="1" style="stop-color:#E6A37B"/>
			</linearGradient>
			<path class="st15" d="M128.3,123.1c-0.2,0.4,0,0.8,0.3,1c0.4,0.2,0.8,0,1-0.3c1.7-2.8,3.3-5.7,5-8.5c0,0,0,0,0-0.1
				c0-0.1,0-0.1-0.1-0.1s-0.1,0-0.1,0.1c-2,2.6-4.1,5.2-6,7.8C128.3,123,128.3,123.1,128.3,123.1z"/>
		</g>
	</g>
</g>
</svg>
