<svg id="ef53cb58-aaf2-4951-ad6a-81d236cc43bd" data-name="Layer 1" xmlns="http://www.w3.org/2000/svg" viewBox="0 0 207 268"><path d="M178.56,247.79c16.11,0,28.84,9.08,10,10.12s-43.18-.59-57.36,1.79-66.38,1.19-50.26-7.14,47.36-4.77,58.32-6S178.56,247.79,178.56,247.79Z" style="fill:#30c16f"/><path d="M129.41,140.37c5.17,2.44,4.62,17.93-1.18,27.38s-10,12.08-10,12.08l-14.76-11.24s6.94-11.15,12.41-19S124.24,137.93,129.41,140.37Z" style="fill:#48aaa5"/><path d="M116.44,177.28S101.34,195.09,85,199.65a146,146,0,0,1-30.32,4.93l.12-6s19.72-2.27,31.66-11.19A89.4,89.4,0,0,0,105,168.92Z" style="fill:#f287b7"/><path d="M60.13,195.89,55,197.54s-2.52-.66-6.15-1.43-8.15-1.31-8.23.24c0,.64,4.36.89,5.22,1.67S33,199.58,33.27,201.08s9.26-.63,9.53.71-10.39,1.37-10.34,2.74c.07,1.71,9.48-.81,9.73.52.14.75-9.43,1.91-8.75,3.65.57,1.45,9.65-2.76,10.3-1.61s-6.66,3.55-4.92,4.24c1,.39,2.19-.86,7.1-2.55s8.36-2.89,8.36-2.89l8.24-.83Z" style="fill:#e29d23"/><path d="M129.37,131.72l-13.7-10.52-4,7.54s6.35,7.54,8.74,12.7l2.38,5.16Z" style="fill:#f287b7"/><path d="M114.08,127.7s1,4.66.65,4.76l-1.59-1.64Z" style="fill:#c72471"/><path d="M131.75,212.67s-37.11-52.83-54.19-45.24c-10.72,4.76,10.12,64.29,10.12,64.29Z" style="fill:#294491"/><path d="M129.37,131.72s20.25,3.57,32.16,45.83,5.95,50,5.95,50l-35.73-14.88s.6-25-4.17-35.12-7.74-32.14-7.74-32.14Z" style="fill:#51bcb9"/><path d="M169.86,207.61l-38.11,5.06s-11.31.6-31,9.53-27.39,23.21-25,27.38c1.19,2.08,26.21,6.62,50.62,6.55a290.63,290.63,0,0,0,48.24-4.76l-1.79-7.15s-21.44-4.16-40.49-3-16.68,1.19-16.68,1.19,36.74.23,44.66-4.17C176.41,229.34,169.86,207.61,169.86,207.61Z" style="fill:#2f499f"/><path d="M107.83,136c-1.87.63-4.69-1.26-7.76-5.82-.51-.75-1.42.53-1.92-.28-.85-1.42-1.27-5-2-6.52-3.75-7.82-5.17-16.24,2-18,14.26-3.53,18,4.84,16.88,17.79C114.28,132.11,110.06,135.29,107.83,136Z" style="fill:#f287b7"/><polygon points="155.69 223.8 129.89 171.22 123.95 172.49 130.56 213.27 155.69 223.8" style="fill:#2f499f"/><path d="M148.72,152.85S158,173.21,160.93,185s6.55,23.81,6.55,23.81l-4.17.3a274.92,274.92,0,0,0-6.55-28.87,286.75,286.75,0,0,0-10.12-27.08Z" style="fill:#2f499f"/><path d="M146.64,153.15s-8.64-13.1-15.78-11.31-9.23,12.2-9.23,12.2l-.3-2.09s1.79-11.9,9.83-12.5,17.56,13.4,17.56,13.4Z" style="fill:#2f499f"/><path d="M92.65,114.65S84.11,103.74,99,101c10.93-2,11.51,4.36,17.07,3.57s10.32,9.13,14.69,11.51,10.12,4.76,16.47,10.71S161.92,147,153.59,151s-13.11-.79-17.67-5.55-3.57-9.13-8.34-9.92S114.38,128,110.91,124c-3-3.43-6-10.32-9.93-9.13A16.05,16.05,0,0,1,92.65,114.65Z" style="fill:#253e84"/><path d="M172.84,244.22c.6.4,2.38-2.38,4-3.27.32-.18,2.83,1,5.81,2.83a21.65,21.65,0,0,0,2.53,1.78c6.73,2.25,14,5.66,14,5.66s1.59,2.08.79,2.92S187.73,254,183.16,253s-8.53-1.58-8.53-1.58Z" style="fill:#313451"/><path d="M107,120s1.07-3,2.69-2a3.22,3.22,0,0,1,.62,4.5c-.89,1.1-1.43.92-1.43.92Z" style="fill:#f287b7"/><path d="M20.39,166.39s16.08-.5,19.22,10.54c3.23,11.34-10.19,11.77-12.86,2.84C23.78,169.85,20.39,166.39,20.39,166.39Z" style="fill:#33c16c"/><path d="M37.27,241.35a.91.91,0,0,0,.86-.66c0-.11,3-11.23,3-29S37.36,182,37.32,181.84a.89.89,0,0,0-1.7.55c0,.12,3.73,11.8,3.73,29.29s-2.92,28.43-3,28.54a.89.89,0,0,0,.63,1.09A.67.67,0,0,0,37.27,241.35Z" style="fill:#315640"/><path d="M58.8,174.62s-12.69-.39-15.16,8.32c-2.55,8.95,8,9.29,10.14,2.24C56.12,177.35,58.8,174.62,58.8,174.62Z" style="fill:#33c16c"/><path d="M21.36,208.11s5.45-5.5,11.62-3.82,7.59,11.61,1.59,11.46c-2.49-.06-4.57-2.8-6.61-4.84C24.64,207.58,21.36,208.11,21.36,208.11Z" style="fill:#33c16c"/><path d="M40,203.3a.89.89,0,0,0,.85-.62c0-.05,1.59-4.9,3-8.33,1.59-4,3-7.33,3-7.33a.89.89,0,1,0-1.65-.68s-1.39,3.38-3,7.35c-1.39,3.48-3,8.39-3,8.44a.89.89,0,0,0,.58,1.12A.86.86,0,0,0,40,203.3Z" style="fill:#315640"/><path d="M39.9,218.77a.84.84,0,0,0,.56-.2.89.89,0,0,0,.12-1.26l-4.16-5.06a.9.9,0,0,0-1.26-.12.89.89,0,0,0-.12,1.26l4.17,5.06A.89.89,0,0,0,39.9,218.77Z" style="fill:#315640"/><path d="M36.2,238.46c14.23-.13,26.17,4.33,29.31,10.44L7,249.45C10.07,243.29,22,238.6,36.2,238.46Z" style="fill:#58a579"/><path d="M96.19,121.88a2.14,2.14,0,0,1,.89-.56,5.51,5.51,0,0,1,1.76-.32v-.59a5.37,5.37,0,0,0-2,.36c-.93.39-1.16.77-1.19.84l.53.27Z" style="fill:#c72471"/><path d="M97.71,123.58a.77.77,0,1,1,.77.74A.75.75,0,0,1,97.71,123.58Zm.59,0c0,.16.35.16.35,0a.17.17,0,0,0-.17-.15A.17.17,0,0,0,98.3,123.58Z" style="fill:#c72471"/><path d="M102.18,133a3.62,3.62,0,0,0,1.26-1.27l.29-.64-.54-.25-.29.64a3,3,0,0,1-1,1Z" style="fill:#c72471"/><path d="M122.38,248.28a.22.22,0,0,1,.23-.22h1.79a.22.22,0,0,1,.22.22.22.22,0,0,1-.22.22h-1.79A.22.22,0,0,1,122.38,248.28Zm-2.75.22h-1.79a.24.24,0,0,1-.22-.23.22.22,0,0,1,.22-.22h1.79a.22.22,0,0,1,.22.23.22.22,0,0,1-.22.22Zm7.52-.23a.22.22,0,0,1,.23-.22h1.78a.22.22,0,0,1,.23.22.22.22,0,0,1-.22.22h-1.79A.22.22,0,0,1,127.15,248.27Zm-12.29.21-1.79,0a.22.22,0,0,1-.22-.22.22.22,0,0,1,.23-.22h1.78a.23.23,0,1,1,0,.45Zm17.06-.23a.22.22,0,0,1,.22-.23h1.79a.22.22,0,0,1,.22.22.21.21,0,0,1-.22.22l-1.78,0h0A.22.22,0,0,1,131.92,248.25Zm-21.83.18-1.78,0a.22.22,0,0,1-.22-.23.22.22,0,0,1,.22-.22l1.79,0a.22.22,0,0,1,0,.44Zm26.6-.22a.22.22,0,0,1,.22-.23l1.79,0h0a.22.22,0,0,1,.22.22.22.22,0,0,1-.22.23l-1.79,0h0A.22.22,0,0,1,136.69,248.21Zm4.77-.06a.21.21,0,0,1,.22-.22l1.78,0h0a.22.22,0,0,1,.22.22.22.22,0,0,1-.22.23l-1.79,0h0A.22.22,0,0,1,141.46,248.15Zm-36.13.2-1.79,0a.22.22,0,0,1-.22-.23.22.22,0,0,1,.23-.21l1.79,0a.21.21,0,0,1,.21.22.22.22,0,0,1-.22.22Zm40.89-.26a.23.23,0,0,1,.22-.23l1.79,0a.25.25,0,0,1,.23.22.22.22,0,0,1-.22.22l-1.79,0h0A.22.22,0,0,1,146.22,248.09ZM151,248a.22.22,0,0,1,.22-.22l1.79,0h0a.23.23,0,0,1,.23.21.22.22,0,0,1-.22.23l-1.79,0h0A.22.22,0,0,1,151,248Zm-50.43.22-1.79-.06a.24.24,0,0,1-.22-.23.25.25,0,0,1,.24-.22c.58,0,1.18.05,1.78.06a.23.23,0,0,1,0,.45Zm55.2-.3a.22.22,0,0,1,.22-.23l1.79,0a.21.21,0,0,1,.22.21.21.21,0,0,1-.21.23l-1.79,0h0A.22.22,0,0,1,155.76,247.93Zm4.77-.1a.23.23,0,0,1,.22-.23l1.37,0a.25.25,0,0,1,.22.22.22.22,0,0,1-.21.23l-1.37,0h0A.22.22,0,0,1,160.53,247.83Zm-64.74.22L94,248a.22.22,0,0,1-.21-.23.21.21,0,0,1,.24-.21l1.78.09a.23.23,0,0,1,0,.45Zm-4.76-.3-1.79-.16a.22.22,0,0,1-.2-.24.21.21,0,0,1,.24-.2l1.78.16a.23.23,0,0,1,.21.24.23.23,0,0,1-.23.2Zm-4.76-.54a10.25,10.25,0,0,1-1.78-.45.22.22,0,0,1-.12-.29.22.22,0,0,1,.29-.13,10.09,10.09,0,0,0,1.69.43.22.22,0,0,1,.18.25.23.23,0,0,1-.22.19ZM85,244.66a.23.23,0,0,1,.08-.31,17.71,17.71,0,0,1,1.61-.84.22.22,0,0,1,.29.11.21.21,0,0,1-.11.29c-.62.29-1.14.57-1.56.82a.19.19,0,0,1-.12,0A.24.24,0,0,1,85,244.66Zm4.33-2a.22.22,0,0,1,.12-.29l1.69-.62a.24.24,0,0,1,.29.13.23.23,0,0,1-.14.29l-1.68.62h-.08A.21.21,0,0,1,89.28,242.64Zm4.5-1.6a.22.22,0,0,1,.14-.28l1.71-.55a.22.22,0,0,1,.13.43l-1.7.55H94A.22.22,0,0,1,93.78,241Zm4.55-1.43a.22.22,0,0,1,.15-.27l1.72-.51a.23.23,0,0,1,.28.15.24.24,0,0,1-.15.28l-1.72.5h-.06A.22.22,0,0,1,98.33,239.61Zm4.59-1.33a.21.21,0,0,1,.15-.27l1.73-.48a.21.21,0,0,1,.27.16.23.23,0,0,1-.15.27l-1.73.48h-.06A.23.23,0,0,1,102.92,238.28Zm4.6-1.26a.22.22,0,0,1,.16-.27l1.73-.45a.22.22,0,1,1,.11.43l-1.72.45h-.06A.23.23,0,0,1,107.52,237Zm4.62-1.2a.22.22,0,0,1,.16-.27l1.74-.43a.22.22,0,1,1,.11.43l-1.74.44h0A.23.23,0,0,1,112.14,235.82Zm4.63-1.15a.22.22,0,0,1,.17-.26c.58-.15,1.16-.28,1.74-.42a.21.21,0,0,1,.26.16.22.22,0,0,1-.16.27l-1.74.42H117A.23.23,0,0,1,116.77,234.67Zm4.64-1.1a.22.22,0,0,1,.17-.26l1.75-.4a.22.22,0,0,1,.1.43l-1.75.4h-.05A.23.23,0,0,1,121.41,233.57Zm4.66-1a.21.21,0,0,1,.17-.26l1.75-.38a.22.22,0,1,1,.09.43l-1.74.38h0A.22.22,0,0,1,126.07,232.52Zm4.67-1a.23.23,0,0,1,.17-.27l1.76-.35a.22.22,0,0,1,.26.17.24.24,0,0,1-.17.27l-1.76.35h0A.22.22,0,0,1,130.74,231.53Zm4.68-.93a.23.23,0,0,1,.18-.26l1.77-.32a.22.22,0,0,1,.25.18.22.22,0,0,1-.18.26l-1.76.32h0A.22.22,0,0,1,135.42,230.6Zm4.71-.82a.22.22,0,0,1,.19-.25c.63-.1,1.22-.19,1.77-.26a.23.23,0,0,1,.26.19.23.23,0,0,1-.2.25l-1.77.26h0A.22.22,0,0,1,140.13,229.78Zm4.73-.63a.22.22,0,0,1,.19-.25c.59-.1,1.18-.2,1.74-.32a.22.22,0,1,1,.09.44c-.57.12-1.16.22-1.76.32h0A.22.22,0,0,1,144.86,229.15Zm4.64-1a.23.23,0,0,1,.14-.28c.58-.18,1.13-.39,1.66-.61a.22.22,0,0,1,.17.41c-.53.23-1.1.44-1.69.63h-.07A.22.22,0,0,1,149.5,228.11Zm4.33-2a.22.22,0,0,1,.06-.31,12.69,12.69,0,0,0,1.39-1.06.23.23,0,0,1,.32,0,.22.22,0,0,1,0,.31,13.7,13.7,0,0,1-1.44,1.11.28.28,0,0,1-.13,0A.2.2,0,0,1,153.83,226.16Zm3.37-3.3a.21.21,0,0,1-.08-.3,4.93,4.93,0,0,0,.61-1.58.22.22,0,0,1,.44.06,5.28,5.28,0,0,1-.66,1.74.24.24,0,0,1-.2.11A.23.23,0,0,1,157.2,222.86Z" style="fill:#fff"/><path d="M106.2,243.62a138.19,138.19,0,0,1,17.53-1.78c11.46-.59,24,0,24.09,0l0-.59c-.12,0-12.65-.59-24.14,0A138,138,0,0,0,106.09,243Z" style="fill:#223f7f"/><path d="M101.08,222.26c0-.07.29-1.66-1.49-11.13s-6.83-19-6.88-19.13l-.53.28c.06.09,5.07,9.59,6.82,19,1.73,9.21,1.5,10.84,1.49,10.9Z" style="fill:#223f7f"/><path d="M135.72,142.43c5.36,2,6.15,17.46,1.19,27.38s-8.93,12.9-8.93,12.9l-15.68-9.92s6-11.71,10.72-20S130.36,140.45,135.72,142.43Z" style="fill:#51bcb9"/><path d="M126,180.33s-13.49,19-29.37,25a145.84,145.84,0,0,1-29.78,7.54l-.4-6S85.9,203,97,193a89.51,89.51,0,0,0,16.88-20Z" style="fill:#f287b7"/><path d="M71.51,203.74l-5,2.09s-2.57-.44-6.25-.9-8.24-.59-8.17.95c0,.64,4.41.51,5.34,1.22s-12.65,2.66-12.26,4.14,9.17-1.43,9.56-.12-10.24,2.27-10.07,3.62c.22,1.7,9.38-1.62,9.74-.32.2.73-9.23,2.72-8.4,4.39.69,1.4,9.37-3.58,10.12-2.5s-6.33,4.12-4.53,4.65c1,.3,2.1-1,6.85-3.15l8.08-3.6,8.13-1.54Z" style="fill:#f2ae25"/><path d="M152,219.74l.07-.44a26.25,26.25,0,0,1-5.6-2.07l-3.87-1.78-.18.4,3.87,1.79A25.63,25.63,0,0,0,152,219.74Z" style="fill:#fff"/><polygon points="127.73 194.09 130.5 191.63 129.29 182.58 128.85 182.64 130.03 191.45 127.43 193.75 127.73 194.09" style="fill:#fff"/></svg>