<svg xmlns="http://www.w3.org/2000/svg" viewBox="0 0 149.24 261.71"><g id="ad671e8e-0cb2-4877-84ba-178db08c6903" data-name="Layer 2"><g id="bfb92f76-af23-49ea-9bc2-cbb246f7fe29" data-name="Layer 1"><path d="M51.07,245.77c-14.75,0-26.41,9.07-9.15,10.12s39.54-.6,52.52,1.78,60.79,1.19,46-7.14-43.38-4.76-53.41-5.95S51.07,245.77,51.07,245.77Z" style="fill:#30c16f"/><path d="M86.42,89.61c-.78-8.71-6.16-38.7-14.1-42.67s-26.7.75-26.7.75a60,60,0,0,0-12.95,9.82c-7.83,8.25-13.84,21.08-13.84,21.08l7.64,6.55A57.71,57.71,0,0,1,38.08,71.45c2.18-1.9,4-3.44,5.56-4.7-.59,3.09-.26,4.81,2.28,12.14,3.57,10.32,4.77,26.59,4.77,26.59H88S87.41,100.72,86.42,89.61Z" style="fill:#51bcb9"/><path d="M63.93,241.14l1,3.62s2,1.06,3.37.65,2.7-3.5,2.7-3.5l-.37-1Z" style="fill:#f287b7"/><path d="M71,242.14s.93,6.64,1.36,7.69-27.7,2.43-27.7,2.43-1.65-3.13,2-4.18S57.31,245.7,59.9,244a7.37,7.37,0,0,1,4.58-1.41s.21,1.36,3,1.48A3.56,3.56,0,0,0,71,242.14Z" style="fill:#313451"/><path d="M106.1,240.84l-1,3.62s-2,1.06-3.37.65-2.71-3.5-2.71-3.5l.38-1Z" style="fill:#f287b7"/><path d="M99,241.84s-.92,6.64-1.36,7.7S125.34,252,125.34,252a2.8,2.8,0,0,0-2-4.18c-3.68-1.05-10.59-2.38-13.18-4.06a7.36,7.36,0,0,0-4.58-1.41s-.21,1.36-3,1.48A3.59,3.59,0,0,1,99,241.84Z" style="fill:#313451"/><path d="M50.16,6.91,53.89.66S58.5-1.42,65.25,1.8a12.59,12.59,0,0,1,6,6.3L67.58,20.31Z" style="fill:#f2ae25"/><ellipse cx="56.42" cy="19.71" rx="16.82" ry="21.93" transform="translate(17.37 64.95) rotate(-68.46)" style="fill:#d6981d"/><path d="M26.17,83.75a31.43,31.43,0,0,0,1.29,8.83c2.24,7.35,2.18,6.35,5.56,11.71l-3.28,2.08A28.44,28.44,0,0,1,18.83,91.49c-2.78-9.72,0-12.9,0-12.9Z" style="fill:#f287b7"/><path d="M18.76,74.33c-1,1.55-3.31,4.37-1.84,5.69a29.13,29.13,0,0,0,8.27,4.87c3.36,1.23,4.77-.8,5.82-3.49s-2.41-1.27-6.34-4.79S18.76,74.33,18.76,74.33Z" style="fill:#5bcec8"/><path d="M63.19,241h7.74l1.19-101c9.92,42.11,9.1,42.27,14.69,65.08A238.77,238.77,0,0,0,98.92,241h8.34s-3-43.85-8.14-84.33c-4.24-33.27-5.16-39.28-9.93-51.19-1-2.61-12.9,5.16-16.47-15.08s-6.35-20.83-6.35-20.83l-19.26.89S48.5,87.23,49.49,97a91,91,0,0,1,0,13.39,499,499,0,0,0,2.39,67.86C54.93,207.36,63.19,241,63.19,241Z" style="fill:#2f499f"/><path d="M49.49,45.56s-1,3-1.39,10.91a100.23,100.23,0,0,0,1.2,17.66l2-.2s-1-10.52-.79-17.06a67,67,0,0,1,1.39-11.71Z" style="fill:#2f499f"/><path d="M69,44.72s-1.52,2.74-3.37,10.47a99.61,99.61,0,0,0-2.07,17.58l2,.17S66.46,62.42,67.86,56a66.82,66.82,0,0,1,3.52-11.25Z" style="fill:#2f499f"/><path d="M71.22,83.22s-7.67,9.24-11.33,14.65S50,111.14,50,111.14l1.91,2s11.89-8,18.68-15.89S79,85.38,79,85.38Z" style="fill:#f287b7"/><path d="M54.26,48.43l-1.19-12.8,6.85-1.19L64.68,46.8a6.1,6.1,0,0,1-5.36,4C54.88,51.27,54.26,48.43,54.26,48.43Z" style="fill:#f287b7"/><path d="M22.35,167.76l27-26.38L25,113.74,1,143.83l.08.08c-2.5,3.22-.55,10.42,4.72,16.77,5.62,6.79,12.9,10,16.31,7.31h0l0,0C22.23,167.9,22.29,167.82,22.35,167.76Z" style="fill:#f2ae25"/><polygon points="31.85 157.06 53.99 162.27 54.01 166.87 22.11 168 31.85 157.06" style="fill:#eaab21"/><path d="M57.83,167.8c-2.76,3.78-6.66,5.64-8.69,4.15s-1.44-5.76,1.32-9.54,6.67-5.64,8.7-4.15S60.6,164,57.83,167.8Z" style="fill:#f2ae25"/><path d="M44.66,120.75c6.67,8,8.78,17.28,4.73,20.63S36.65,140.94,30,132.9s-9.07-15.8-5-19.16S38,112.7,44.66,120.75Z" style="fill:#eaab21"/><path d="M48.72,140.79a1.47,1.47,0,0,1-1.1-.48,1.49,1.49,0,0,1,.1-2.11c.46-.42,11.34-10.68-.25-23.67-7.94-8.89-20.54,1.29-20.67,1.39a1.49,1.49,0,0,1-1.89-2.3c5.13-4.22,16.92-9.87,24.78-1.07,13.58,15.21.17,27.73,0,27.86A1.47,1.47,0,0,1,48.72,140.79Z" style="fill:#eaab21"/><path d="M39.94,120.45c3.17,3.82,4.18,8.22,2.25,9.81s-6.06-.21-9.23-4-4.18-8.22-2.25-9.82S36.77,116.62,39.94,120.45Z" style="fill:#7f5c16"/><path d="M72.92,47.14c.79,0,14.49,8.14,12.3,24.81S80.86,86,80.86,86l-8.94-5s1-4.56,1.2-15.47a148.8,148.8,0,0,0-.8-18.66" style="fill:#51bcb9"/><path d="M33,104.29s5.46,1.69,7,4.66-.6,2.19-3,2.88c-2.86.83-1.4-1.55-3.48-2.38s-1.85-.61-3.87-3.08Z" style="fill:#f287b7"/><path d="M50.45,111.08s-2.15-1.63-2.59-1.33.15.44-.15,1.34-3.87,2.38-3.13,3.57,1.19,2.53,1.79,3,2.23,1.79,3.57.3a14.18,14.18,0,0,0,2.19-4.65Z" style="fill:#f287b7"/><path d="M87.28,250.72c-14.23-.13-26.17,4.88-29.31,11h58.52C113.41,255.54,101.52,250.86,87.28,250.72Z" style="fill:#58a579"/><path d="M53.59,39.58s.9,2.48,2.9,1.41c2.38-1.26,3.57-6.25,3.57-6.25Z" style="fill:#c72471"/><path d="M54.63,40c7.15.6,15.48-30.09,1.19-29.17C39.74,11.82,47.48,39.36,54.63,40Z" style="fill:#f287b7"/><path d="M57,15.54s-2.78,4.37-5.95,5.16-5,3.57-4,5.36,2.38,5.16,1.19,6.15-.8,3.38-.2,4.17.4,5-1,2.38-2.19-7.34-1.59-8.53-1-3.77-1.39-7.34S46.29,10.78,53.24,10s11.12,3.57,11.51,8.13-.39,9.53-1.19,10.32-2.38-7.34-4-9.32A41.77,41.77,0,0,1,57,15.54Z" style="fill:#253e84"/><path d="M61.33,25.22s1.19-3.87,3-2.38.44,5.11-.75,5.6l-1.93.8Z" style="fill:#f287b7"/><polygon points="52.83 32.35 52.96 26.42 53.56 26.43 53.44 31.75 55.08 31.74 55.08 32.33 52.83 32.35" style="fill:#c72471"/><path d="M56.54,34.26s-2.45,1-3.57.55-.19,2,1.59,1.57A2.83,2.83,0,0,0,56.54,34.26Z" style="fill:#fff"/><path d="M59.1,26.08a1.88,1.88,0,0,0-1.86-.95h0c-.67,0-.88.16-.91.22l-.59-.06c0-.12.1-.76,1.5-.76h0a2.48,2.48,0,0,1,2.41,1.32Z" style="fill:#c72471"/><path d="M48.13,26.28,47.62,26A2.47,2.47,0,0,1,50.2,25c1.41.2,1.41.85,1.39,1L51,25.94s-.21-.22-.88-.32A1.9,1.9,0,0,0,48.13,26.28Z" style="fill:#c72471"/><path d="M59.32,89.91a1.79,1.79,0,0,1-.34,0c-1.64-.33-4.2-2.53-4.89-3.36s-1.47-9-1.54-9.94l0-.23,12-.47,0,.21c.11.93,1,9.19.27,10.55A8.78,8.78,0,0,1,59.32,89.91ZM53,76.77c.3,3.45.92,8.87,1.42,9.47.78.93,3.27,2.92,4.64,3.2s4.71-1.75,5.41-3c.57-1,0-7.43-.3-10.08Z" style="fill:#fff"/><path d="M43.56,68.61l-.44-.07a17.73,17.73,0,0,1,1.41-4.23c1.06-2.27,1.56-10,1.57-10l.44,0c0,.32-.51,7.85-1.61,10.2A17.78,17.78,0,0,0,43.56,68.61Z" style="fill:#fff"/><path d="M71.89,77.82l-.42-.14a52.54,52.54,0,0,0,1.62-7,68.7,68.7,0,0,0,.4-11.86l.44,0a67.62,67.62,0,0,1-.4,12A49.07,49.07,0,0,1,71.89,77.82Z" style="fill:#fff"/><path d="M71.08,77.35C70.19,78,68,81.82,70,83a48.1,48.1,0,0,0,6.85,3.42c3.27,1.34,5.06,1.94,6-1.34s-1.34-3.57-4.91-5.65A14.94,14.94,0,0,0,71.08,77.35Z" style="fill:#5bcec8"/><path d="M69.36,81l-.43-.15a16.27,16.27,0,0,1,1.53-3.24c.76-1,3.66.19,4.23.43l-.17.41c-1.3-.55-3.3-1.09-3.71-.56A15.11,15.11,0,0,0,69.36,81Z" style="fill:#fff"/><path d="M87.8,111.85a33.06,33.06,0,0,1-4.2-.39c-2.79-.4-6.29-2.72-6.44-2.82l.25-.37S81,110.63,83.67,111a34.2,34.2,0,0,0,4.13.4Z" style="fill:#fff"/><path d="M89.51,120.68a.22.22,0,0,1-.22-.2l-.12-.88a.22.22,0,0,1,.19-.25.21.21,0,0,1,.25.19l.12.88a.21.21,0,0,1-.19.25Z" style="fill:#fff"/><path d="M104.68,235a.23.23,0,0,1-.22-.2l-.24-1.79a.22.22,0,0,1,.19-.25.22.22,0,0,1,.25.2l.24,1.78a.22.22,0,0,1-.19.25Zm-.63-4.77a.24.24,0,0,1-.23-.19l-.23-1.79a.22.22,0,0,1,.44-.06l.24,1.79a.23.23,0,0,1-.19.25Zm-.64-4.76a.23.23,0,0,1-.22-.2l-.23-1.78a.23.23,0,0,1,.19-.26.23.23,0,0,1,.25.2l.24,1.78a.22.22,0,0,1-.2.25Zm-.63-4.77a.22.22,0,0,1-.22-.19l-.24-1.79a.23.23,0,0,1,.2-.25.22.22,0,0,1,.25.19l.23,1.79a.22.22,0,0,1-.19.25Zm-.63-4.76a.22.22,0,0,1-.22-.2l-.24-1.78a.22.22,0,0,1,.19-.25.21.21,0,0,1,.25.19l.24,1.78a.23.23,0,0,1-.19.26Zm-.63-4.77a.22.22,0,0,1-.22-.19l-.24-1.79a.22.22,0,0,1,.19-.25.21.21,0,0,1,.25.19l.24,1.79a.22.22,0,0,1-.19.25Zm-.63-4.76a.23.23,0,0,1-.23-.2l-.23-1.78a.21.21,0,0,1,.19-.25.22.22,0,0,1,.25.19l.24,1.79a.23.23,0,0,1-.19.25Zm-.64-4.77a.22.22,0,0,1-.22-.19l-.23-1.79a.22.22,0,0,1,.19-.25.23.23,0,0,1,.25.19l.24,1.79a.23.23,0,0,1-.2.25Zm-.63-4.76a.23.23,0,0,1-.22-.2l-.24-1.78a.23.23,0,0,1,.2-.25.23.23,0,0,1,.25.19l.23,1.79a.22.22,0,0,1-.19.25ZM99,192.14a.22.22,0,0,1-.22-.19l-.24-1.79a.23.23,0,0,1,.19-.25.22.22,0,0,1,.25.2l.24,1.78a.22.22,0,0,1-.19.25Zm-.63-4.76a.22.22,0,0,1-.22-.19l-.24-1.79a.22.22,0,0,1,.19-.25.21.21,0,0,1,.25.19l.24,1.79a.22.22,0,0,1-.19.25Zm-.63-4.76a.24.24,0,0,1-.23-.2l-.23-1.78a.23.23,0,0,1,.19-.26.22.22,0,0,1,.25.2l.24,1.78a.22.22,0,0,1-.19.25Zm-.64-4.77a.22.22,0,0,1-.22-.19l-.23-1.79a.22.22,0,0,1,.19-.25.23.23,0,0,1,.25.19l.24,1.79a.23.23,0,0,1-.2.25Zm-.63-4.76a.23.23,0,0,1-.22-.2L96,171.11a.22.22,0,0,1,.2-.25.23.23,0,0,1,.25.19l.23,1.78a.21.21,0,0,1-.19.25Zm-.63-4.77a.22.22,0,0,1-.22-.19l-.24-1.79a.23.23,0,0,1,.19-.25.21.21,0,0,1,.25.19l.24,1.79a.22.22,0,0,1-.19.25Zm-.63-4.76a.22.22,0,0,1-.22-.2l-.24-1.78a.21.21,0,0,1,.19-.25.21.21,0,0,1,.25.19l.24,1.78a.23.23,0,0,1-.19.26Zm-.63-4.77a.24.24,0,0,1-.23-.19l-.23-1.79a.22.22,0,0,1,.19-.25.22.22,0,0,1,.25.19l.24,1.79a.23.23,0,0,1-.19.25ZM93.93,154a.23.23,0,0,1-.22-.2l-.23-1.78a.22.22,0,0,1,.19-.25.22.22,0,0,1,.25.19l.24,1.79a.23.23,0,0,1-.2.25Zm-.63-4.77a.22.22,0,0,1-.22-.19l-.24-1.79a.23.23,0,0,1,.45-.06l.23,1.79a.22.22,0,0,1-.19.25Zm-.63-4.76a.22.22,0,0,1-.22-.19l-.24-1.79a.23.23,0,0,1,.19-.25.21.21,0,0,1,.25.19l.24,1.79a.22.22,0,0,1-.19.25ZM92,139.73a.22.22,0,0,1-.22-.19l-.24-1.79a.22.22,0,0,1,.19-.25.21.21,0,0,1,.25.2l.24,1.78a.22.22,0,0,1-.19.25ZM91.41,135a.24.24,0,0,1-.23-.19L91,133a.22.22,0,0,1,.44-.06l.24,1.79a.23.23,0,0,1-.2.25Zm-.64-4.76a.23.23,0,0,1-.22-.2l-.23-1.79a.22.22,0,0,1,.19-.25.23.23,0,0,1,.25.2L91,130a.22.22,0,0,1-.2.25Zm-.63-4.77a.22.22,0,0,1-.22-.19l-.24-1.79a.23.23,0,0,1,.2-.25.23.23,0,0,1,.25.19l.23,1.79a.22.22,0,0,1-.19.25Z" style="fill:#fff"/><path d="M105.19,238.89a.22.22,0,0,1-.22-.2l-.12-.88a.23.23,0,0,1,.19-.25.22.22,0,0,1,.25.19l.12.89a.22.22,0,0,1-.19.25Z" style="fill:#fff"/><path d="M86.62,253.65h0a.89.89,0,0,1-.88-.9,100.16,100.16,0,0,1,2.07-16.05,170.09,170.09,0,0,1,13.32-39.6c14.86-31.19,31-42.72,31.66-43.19a.89.89,0,1,1,1,1.46,65.36,65.36,0,0,0-10,9.59c-5.4,6.15-13.44,16.85-21.09,32.91A168.35,168.35,0,0,0,89.54,237a98.65,98.65,0,0,0-2,15.73A.9.9,0,0,1,86.62,253.65Z" style="fill:#3d6d50"/><path d="M143.3,150.66a31.46,31.46,0,0,1-10.73,3.87,30.84,30.84,0,0,1,6.88-9.09c4.47-3.94,8.39-4.38,9.45-2.93S148.62,147.45,143.3,150.66Z" style="fill:#2fd170"/><path d="M136.52,166.5a31.43,31.43,0,0,1-11.23-2,30.8,30.8,0,0,1,10.51-4.44c5.84-1.18,9.45.41,9.65,2.19S142.74,166.38,136.52,166.5Z" style="fill:#2fd170"/><path d="M127.59,180.33a36.52,36.52,0,0,1-12.51-4.28,35.87,35.87,0,0,1,12.82-3.24c6.9-.33,10.76,2.13,10.68,4.2S134.74,181.28,127.59,180.33Z" style="fill:#2fd170"/><path d="M119.61,193.72a38.26,38.26,0,0,1-12.76-5.56,37.67,37.67,0,0,1,13.73-2.29c7.27.25,11.11,3.15,10.84,5.32S127,195.34,119.61,193.72Z" style="fill:#2fd170"/><path d="M114.4,208.21A42.66,42.66,0,0,1,100.21,202a42,42,0,0,1,15.27-2.56c8.09.29,12.36,3.52,12.06,5.93S122.65,210,114.4,208.21Z" style="fill:#2fd170"/><path d="M109.28,223.34a46.37,46.37,0,0,1-15.39-6.72,45.55,45.55,0,0,1,16.56-2.76c8.77.3,13.39,3.8,13.07,6.42S118.22,225.28,109.28,223.34Z" style="fill:#2fd170"/><path d="M105.19,238.66A46.23,46.23,0,0,1,89.8,232a45.61,45.61,0,0,1,16.56-2.76c8.77.3,13.4,3.8,13.07,6.42S114.13,240.61,105.19,238.66Z" style="fill:#2fd170"/><path d="M118.36,151.31a31.43,31.43,0,0,0,5.19,10.16,30.92,30.92,0,0,0,1.19-11.35c-.57-5.93-3.14-8.92-4.9-8.59S116.67,145.33,118.36,151.31Z" style="fill:#2fd170"/><path d="M104.79,164.07a36.71,36.71,0,0,0,9,9.68,35.87,35.87,0,0,0-2.27-13c-2.51-6.43-6.32-9-8.18-8S101,157.93,104.79,164.07Z" style="fill:#2fd170"/><path d="M95.52,178.15a38.38,38.38,0,0,0,10.61,9,37.75,37.75,0,0,0-4-13.34c-3.42-6.41-7.72-8.58-9.55-7.38S90.81,172.21,95.52,178.15Z" style="fill:#2fd170"/><path d="M87.28,191.9A42.35,42.35,0,0,0,99,201.85a41.59,41.59,0,0,0-4.39-14.72c-3.77-7.08-8.52-9.47-10.54-8.15S82.09,185.34,87.28,191.9Z" style="fill:#2fd170"/><path d="M78,207.3a47.68,47.68,0,0,0,15.11,9.81,43.51,43.51,0,0,0-6.36-16.39c-5.12-7.64-11.14-9.72-13.55-7.9S71.2,200.47,78,207.3Z" style="fill:#2fd170"/><path d="M72.08,222.69a50.36,50.36,0,0,0,17,8.26,45.79,45.79,0,0,0-8.79-16.27c-6.35-7.3-12.9-8.69-15.18-6.47S64,216.46,72.08,222.69Z" style="fill:#2fd170"/></g></g></svg>